G75*
%MOIN*%
%OFA0B0*%
%FSLAX25Y25*%
%IPPOS*%
%LPD*%
%AMOC8*
5,1,8,0,0,1.08239X$1,22.5*
%
%ADD10C,0.00000*%
%ADD11R,0.00090X0.00045*%
%ADD12R,0.00045X0.00045*%
%ADD13R,0.00224X0.00045*%
%ADD14R,0.00224X0.00045*%
%ADD15R,0.00359X0.00045*%
%ADD16R,0.00449X0.00045*%
%ADD17R,0.00583X0.00045*%
%ADD18R,0.00673X0.00045*%
%ADD19R,0.00673X0.00045*%
%ADD20R,0.00808X0.00045*%
%ADD21R,0.00763X0.00045*%
%ADD22R,0.00897X0.00045*%
%ADD23R,0.00897X0.00045*%
%ADD24R,0.00987X0.00045*%
%ADD25R,0.01122X0.00045*%
%ADD26R,0.01122X0.00045*%
%ADD27R,0.01212X0.00045*%
%ADD28R,0.01346X0.00045*%
%ADD29R,0.01436X0.00045*%
%ADD30R,0.01436X0.00045*%
%ADD31R,0.01571X0.00045*%
%ADD32R,0.01660X0.00045*%
%ADD33R,0.01795X0.00045*%
%ADD34R,0.01885X0.00045*%
%ADD35R,0.02019X0.00045*%
%ADD36R,0.02109X0.00045*%
%ADD37R,0.02109X0.00045*%
%ADD38R,0.02244X0.00045*%
%ADD39R,0.00359X0.00045*%
%ADD40R,0.00314X0.00045*%
%ADD41R,0.02199X0.00045*%
%ADD42R,0.02333X0.00045*%
%ADD43R,0.02333X0.00045*%
%ADD44R,0.02468X0.00045*%
%ADD45R,0.00538X0.00045*%
%ADD46R,0.02423X0.00045*%
%ADD47R,0.02558X0.00045*%
%ADD48R,0.02692X0.00045*%
%ADD49R,0.02647X0.00045*%
%ADD50R,0.02782X0.00045*%
%ADD51R,0.00853X0.00045*%
%ADD52R,0.02782X0.00045*%
%ADD53R,0.02872X0.00045*%
%ADD54R,0.00942X0.00045*%
%ADD55R,0.04083X0.00045*%
%ADD56R,0.04173X0.00045*%
%ADD57R,0.04173X0.00045*%
%ADD58R,0.04218X0.00045*%
%ADD59R,0.04308X0.00045*%
%ADD60R,0.04308X0.00045*%
%ADD61R,0.04353X0.00045*%
%ADD62R,0.04397X0.00045*%
%ADD63R,0.04487X0.00045*%
%ADD64R,0.04532X0.00045*%
%ADD65R,0.04622X0.00045*%
%ADD66R,0.04622X0.00045*%
%ADD67R,0.04667X0.00045*%
%ADD68R,0.04667X0.00045*%
%ADD69R,0.04577X0.00045*%
%ADD70R,0.04577X0.00045*%
%ADD71R,0.04622X0.00045*%
%ADD72R,0.04532X0.00045*%
%ADD73R,0.04487X0.00045*%
%ADD74R,0.04442X0.00045*%
%ADD75R,0.04442X0.00045*%
%ADD76R,0.04397X0.00045*%
%ADD77R,0.04397X0.00045*%
%ADD78R,0.04397X0.00045*%
%ADD79R,0.04308X0.00045*%
%ADD80R,0.04263X0.00045*%
%ADD81R,0.04263X0.00045*%
%ADD82R,0.04218X0.00045*%
%ADD83R,0.04712X0.00045*%
%ADD84R,0.04756X0.00045*%
%ADD85R,0.04801X0.00045*%
%ADD86R,0.04891X0.00045*%
%ADD87R,0.04846X0.00045*%
%ADD88R,0.04891X0.00045*%
%ADD89R,0.04936X0.00045*%
%ADD90R,0.04981X0.00045*%
%ADD91R,0.05026X0.00045*%
%ADD92R,0.05026X0.00045*%
%ADD93R,0.04846X0.00045*%
%ADD94R,0.04756X0.00045*%
%ADD95R,0.04801X0.00045*%
%ADD96R,0.04622X0.00045*%
%ADD97R,0.04532X0.00045*%
%ADD98R,0.04846X0.00045*%
%ADD99R,0.05250X0.00045*%
%ADD100R,0.05205X0.00045*%
%ADD101R,0.05429X0.00045*%
%ADD102R,0.05654X0.00045*%
%ADD103R,0.05923X0.00045*%
%ADD104R,0.05878X0.00045*%
%ADD105R,0.06103X0.00045*%
%ADD106R,0.06282X0.00045*%
%ADD107R,0.06327X0.00045*%
%ADD108R,0.06372X0.00045*%
%ADD109R,0.06282X0.00045*%
%ADD110R,0.06237X0.00045*%
%ADD111R,0.06192X0.00045*%
%ADD112R,0.06192X0.00045*%
%ADD113R,0.06147X0.00045*%
%ADD114R,0.06147X0.00045*%
%ADD115R,0.06103X0.00045*%
%ADD116R,0.06058X0.00045*%
%ADD117R,0.06058X0.00045*%
%ADD118R,0.06327X0.00045*%
%ADD119R,0.06013X0.00045*%
%ADD120R,0.05968X0.00045*%
%ADD121R,0.05788X0.00045*%
%ADD122R,0.05564X0.00045*%
%ADD123R,0.05385X0.00045*%
%ADD124R,0.05385X0.00045*%
%ADD125R,0.05115X0.00045*%
%ADD126R,0.05160X0.00045*%
%ADD127R,0.04936X0.00045*%
%ADD128R,0.04712X0.00045*%
%ADD129R,0.05070X0.00045*%
%ADD130R,0.05205X0.00045*%
%ADD131R,0.05340X0.00045*%
%ADD132R,0.11712X0.00045*%
%ADD133R,0.11667X0.00045*%
%ADD134R,0.11577X0.00045*%
%ADD135R,0.11577X0.00045*%
%ADD136R,0.11532X0.00045*%
%ADD137R,0.11487X0.00045*%
%ADD138R,0.11442X0.00045*%
%ADD139R,0.11397X0.00045*%
%ADD140R,0.11353X0.00045*%
%ADD141R,0.11308X0.00045*%
%ADD142R,0.11218X0.00045*%
%ADD143R,0.11173X0.00045*%
%ADD144R,0.11128X0.00045*%
%ADD145R,0.11038X0.00045*%
%ADD146R,0.11038X0.00045*%
%ADD147R,0.11308X0.00045*%
%ADD148R,0.11622X0.00045*%
%ADD149R,0.11667X0.00045*%
%ADD150R,0.11756X0.00045*%
%ADD151R,0.11801X0.00045*%
%ADD152R,0.11846X0.00045*%
%ADD153R,0.11936X0.00045*%
%ADD154R,0.11981X0.00045*%
%ADD155R,0.12026X0.00045*%
%ADD156R,0.12115X0.00045*%
%ADD157R,0.12160X0.00045*%
%ADD158R,0.12205X0.00045*%
%ADD159R,0.12295X0.00045*%
%ADD160R,0.12385X0.00045*%
%ADD161R,0.12429X0.00045*%
%ADD162R,0.12474X0.00045*%
%ADD163R,0.12564X0.00045*%
%ADD164R,0.12609X0.00045*%
%ADD165R,0.12654X0.00045*%
%ADD166R,0.12744X0.00045*%
%ADD167R,0.12744X0.00045*%
%ADD168R,0.12833X0.00045*%
%ADD169R,0.12923X0.00045*%
%ADD170R,0.12968X0.00045*%
%ADD171R,0.13013X0.00045*%
%ADD172R,0.13103X0.00045*%
%ADD173R,0.13147X0.00045*%
%ADD174R,0.13192X0.00045*%
%ADD175R,0.13282X0.00045*%
%ADD176R,0.13372X0.00045*%
%ADD177R,0.13372X0.00045*%
%ADD178R,0.13462X0.00045*%
%ADD179R,0.13013X0.00045*%
%ADD180R,0.03141X0.00045*%
%ADD181R,0.03006X0.00045*%
%ADD182R,0.05968X0.00045*%
%ADD183R,0.02917X0.00045*%
%ADD184R,0.05744X0.00045*%
%ADD185R,0.02827X0.00045*%
%ADD186R,0.05295X0.00045*%
%ADD187R,0.02603X0.00045*%
%ADD188R,0.05115X0.00045*%
%ADD189R,0.02378X0.00045*%
%ADD190R,0.02154X0.00045*%
%ADD191R,0.02019X0.00045*%
%ADD192R,0.03994X0.00045*%
%ADD193R,0.01929X0.00045*%
%ADD194R,0.03769X0.00045*%
%ADD195R,0.03545X0.00045*%
%ADD196R,0.01705X0.00045*%
%ADD197R,0.03320X0.00045*%
%ADD198R,0.01615X0.00045*%
%ADD199R,0.03231X0.00045*%
%ADD200R,0.01481X0.00045*%
%ADD201R,0.03186X0.00045*%
%ADD202R,0.01391X0.00045*%
%ADD203R,0.03141X0.00045*%
%ADD204R,0.01346X0.00045*%
%ADD205R,0.01256X0.00045*%
%ADD206R,0.01167X0.00045*%
%ADD207R,0.01032X0.00045*%
%ADD208R,0.03096X0.00045*%
%ADD209R,0.03051X0.00045*%
%ADD210R,0.00718X0.00045*%
%ADD211R,0.03051X0.00045*%
%ADD212R,0.00494X0.00045*%
%ADD213R,0.00404X0.00045*%
%ADD214R,0.02962X0.00045*%
%ADD215R,0.00269X0.00045*%
%ADD216R,0.00179X0.00045*%
%ADD217R,0.00135X0.00045*%
%ADD218R,0.02962X0.00045*%
%ADD219R,0.02872X0.00045*%
%ADD220R,0.02872X0.00045*%
%ADD221R,0.02782X0.00045*%
%ADD222R,0.02737X0.00045*%
%ADD223R,0.02692X0.00045*%
%ADD224R,0.02603X0.00045*%
%ADD225R,0.02558X0.00045*%
%ADD226R,0.02513X0.00045*%
%ADD227R,0.02468X0.00045*%
%ADD228R,0.02423X0.00045*%
%ADD229R,0.02423X0.00045*%
%ADD230C,0.00600*%
%ADD231C,0.00300*%
D10*
X0026585Y0007943D02*
X0105335Y0007943D01*
X0105335Y0107943D01*
X0005335Y0107943D01*
X0005335Y0029193D01*
X0026585Y0007943D01*
X0037225Y0029052D02*
X0037227Y0029136D01*
X0037233Y0029219D01*
X0037243Y0029302D01*
X0037257Y0029385D01*
X0037274Y0029467D01*
X0037296Y0029548D01*
X0037321Y0029627D01*
X0037350Y0029706D01*
X0037383Y0029783D01*
X0037419Y0029858D01*
X0037459Y0029932D01*
X0037502Y0030004D01*
X0037549Y0030073D01*
X0037599Y0030140D01*
X0037652Y0030205D01*
X0037708Y0030267D01*
X0037766Y0030327D01*
X0037828Y0030384D01*
X0037892Y0030437D01*
X0037959Y0030488D01*
X0038028Y0030535D01*
X0038099Y0030580D01*
X0038172Y0030620D01*
X0038247Y0030657D01*
X0038324Y0030691D01*
X0038402Y0030721D01*
X0038481Y0030747D01*
X0038562Y0030770D01*
X0038644Y0030788D01*
X0038726Y0030803D01*
X0038809Y0030814D01*
X0038892Y0030821D01*
X0038976Y0030824D01*
X0039060Y0030823D01*
X0039143Y0030818D01*
X0039227Y0030809D01*
X0039309Y0030796D01*
X0039391Y0030780D01*
X0039472Y0030759D01*
X0039553Y0030735D01*
X0039631Y0030707D01*
X0039709Y0030675D01*
X0039785Y0030639D01*
X0039859Y0030600D01*
X0039931Y0030558D01*
X0040001Y0030512D01*
X0040069Y0030463D01*
X0040134Y0030411D01*
X0040197Y0030356D01*
X0040257Y0030298D01*
X0040315Y0030237D01*
X0040369Y0030173D01*
X0040421Y0030107D01*
X0040469Y0030039D01*
X0040514Y0029968D01*
X0040555Y0029895D01*
X0040594Y0029821D01*
X0040628Y0029745D01*
X0040659Y0029667D01*
X0040686Y0029588D01*
X0040710Y0029507D01*
X0040729Y0029426D01*
X0040745Y0029344D01*
X0040757Y0029261D01*
X0040765Y0029177D01*
X0040769Y0029094D01*
X0040769Y0029010D01*
X0040765Y0028927D01*
X0040757Y0028843D01*
X0040745Y0028760D01*
X0040729Y0028678D01*
X0040710Y0028597D01*
X0040686Y0028516D01*
X0040659Y0028437D01*
X0040628Y0028359D01*
X0040594Y0028283D01*
X0040555Y0028209D01*
X0040514Y0028136D01*
X0040469Y0028065D01*
X0040421Y0027997D01*
X0040369Y0027931D01*
X0040315Y0027867D01*
X0040257Y0027806D01*
X0040197Y0027748D01*
X0040134Y0027693D01*
X0040069Y0027641D01*
X0040001Y0027592D01*
X0039931Y0027546D01*
X0039859Y0027504D01*
X0039785Y0027465D01*
X0039709Y0027429D01*
X0039631Y0027397D01*
X0039553Y0027369D01*
X0039472Y0027345D01*
X0039391Y0027324D01*
X0039309Y0027308D01*
X0039227Y0027295D01*
X0039143Y0027286D01*
X0039060Y0027281D01*
X0038976Y0027280D01*
X0038892Y0027283D01*
X0038809Y0027290D01*
X0038726Y0027301D01*
X0038644Y0027316D01*
X0038562Y0027334D01*
X0038481Y0027357D01*
X0038402Y0027383D01*
X0038324Y0027413D01*
X0038247Y0027447D01*
X0038172Y0027484D01*
X0038099Y0027524D01*
X0038028Y0027569D01*
X0037959Y0027616D01*
X0037892Y0027667D01*
X0037828Y0027720D01*
X0037766Y0027777D01*
X0037708Y0027837D01*
X0037652Y0027899D01*
X0037599Y0027964D01*
X0037549Y0028031D01*
X0037502Y0028100D01*
X0037459Y0028172D01*
X0037419Y0028246D01*
X0037383Y0028321D01*
X0037350Y0028398D01*
X0037321Y0028477D01*
X0037296Y0028556D01*
X0037274Y0028637D01*
X0037257Y0028719D01*
X0037243Y0028802D01*
X0037233Y0028885D01*
X0037227Y0028968D01*
X0037225Y0029052D01*
X0024976Y0041301D02*
X0024978Y0041385D01*
X0024984Y0041468D01*
X0024994Y0041551D01*
X0025008Y0041634D01*
X0025025Y0041716D01*
X0025047Y0041797D01*
X0025072Y0041876D01*
X0025101Y0041955D01*
X0025134Y0042032D01*
X0025170Y0042107D01*
X0025210Y0042181D01*
X0025253Y0042253D01*
X0025300Y0042322D01*
X0025350Y0042389D01*
X0025403Y0042454D01*
X0025459Y0042516D01*
X0025517Y0042576D01*
X0025579Y0042633D01*
X0025643Y0042686D01*
X0025710Y0042737D01*
X0025779Y0042784D01*
X0025850Y0042829D01*
X0025923Y0042869D01*
X0025998Y0042906D01*
X0026075Y0042940D01*
X0026153Y0042970D01*
X0026232Y0042996D01*
X0026313Y0043019D01*
X0026395Y0043037D01*
X0026477Y0043052D01*
X0026560Y0043063D01*
X0026643Y0043070D01*
X0026727Y0043073D01*
X0026811Y0043072D01*
X0026894Y0043067D01*
X0026978Y0043058D01*
X0027060Y0043045D01*
X0027142Y0043029D01*
X0027223Y0043008D01*
X0027304Y0042984D01*
X0027382Y0042956D01*
X0027460Y0042924D01*
X0027536Y0042888D01*
X0027610Y0042849D01*
X0027682Y0042807D01*
X0027752Y0042761D01*
X0027820Y0042712D01*
X0027885Y0042660D01*
X0027948Y0042605D01*
X0028008Y0042547D01*
X0028066Y0042486D01*
X0028120Y0042422D01*
X0028172Y0042356D01*
X0028220Y0042288D01*
X0028265Y0042217D01*
X0028306Y0042144D01*
X0028345Y0042070D01*
X0028379Y0041994D01*
X0028410Y0041916D01*
X0028437Y0041837D01*
X0028461Y0041756D01*
X0028480Y0041675D01*
X0028496Y0041593D01*
X0028508Y0041510D01*
X0028516Y0041426D01*
X0028520Y0041343D01*
X0028520Y0041259D01*
X0028516Y0041176D01*
X0028508Y0041092D01*
X0028496Y0041009D01*
X0028480Y0040927D01*
X0028461Y0040846D01*
X0028437Y0040765D01*
X0028410Y0040686D01*
X0028379Y0040608D01*
X0028345Y0040532D01*
X0028306Y0040458D01*
X0028265Y0040385D01*
X0028220Y0040314D01*
X0028172Y0040246D01*
X0028120Y0040180D01*
X0028066Y0040116D01*
X0028008Y0040055D01*
X0027948Y0039997D01*
X0027885Y0039942D01*
X0027820Y0039890D01*
X0027752Y0039841D01*
X0027682Y0039795D01*
X0027610Y0039753D01*
X0027536Y0039714D01*
X0027460Y0039678D01*
X0027382Y0039646D01*
X0027304Y0039618D01*
X0027223Y0039594D01*
X0027142Y0039573D01*
X0027060Y0039557D01*
X0026978Y0039544D01*
X0026894Y0039535D01*
X0026811Y0039530D01*
X0026727Y0039529D01*
X0026643Y0039532D01*
X0026560Y0039539D01*
X0026477Y0039550D01*
X0026395Y0039565D01*
X0026313Y0039583D01*
X0026232Y0039606D01*
X0026153Y0039632D01*
X0026075Y0039662D01*
X0025998Y0039696D01*
X0025923Y0039733D01*
X0025850Y0039773D01*
X0025779Y0039818D01*
X0025710Y0039865D01*
X0025643Y0039916D01*
X0025579Y0039969D01*
X0025517Y0040026D01*
X0025459Y0040086D01*
X0025403Y0040148D01*
X0025350Y0040213D01*
X0025300Y0040280D01*
X0025253Y0040349D01*
X0025210Y0040421D01*
X0025170Y0040495D01*
X0025134Y0040570D01*
X0025101Y0040647D01*
X0025072Y0040726D01*
X0025047Y0040805D01*
X0025025Y0040886D01*
X0025008Y0040968D01*
X0024994Y0041051D01*
X0024984Y0041134D01*
X0024978Y0041217D01*
X0024976Y0041301D01*
X0009085Y0097943D02*
X0009087Y0098101D01*
X0009093Y0098258D01*
X0009103Y0098416D01*
X0009117Y0098573D01*
X0009135Y0098729D01*
X0009156Y0098886D01*
X0009182Y0099041D01*
X0009212Y0099196D01*
X0009245Y0099350D01*
X0009283Y0099503D01*
X0009324Y0099656D01*
X0009369Y0099807D01*
X0009418Y0099957D01*
X0009471Y0100105D01*
X0009527Y0100253D01*
X0009588Y0100398D01*
X0009651Y0100543D01*
X0009719Y0100685D01*
X0009790Y0100826D01*
X0009864Y0100965D01*
X0009942Y0101102D01*
X0010024Y0101237D01*
X0010108Y0101370D01*
X0010197Y0101501D01*
X0010288Y0101629D01*
X0010383Y0101756D01*
X0010480Y0101879D01*
X0010581Y0102001D01*
X0010685Y0102119D01*
X0010792Y0102235D01*
X0010902Y0102348D01*
X0011014Y0102459D01*
X0011130Y0102566D01*
X0011248Y0102671D01*
X0011368Y0102773D01*
X0011491Y0102871D01*
X0011617Y0102967D01*
X0011745Y0103059D01*
X0011875Y0103148D01*
X0012007Y0103234D01*
X0012142Y0103316D01*
X0012279Y0103395D01*
X0012417Y0103470D01*
X0012557Y0103542D01*
X0012700Y0103610D01*
X0012843Y0103675D01*
X0012989Y0103736D01*
X0013136Y0103793D01*
X0013284Y0103847D01*
X0013434Y0103897D01*
X0013584Y0103943D01*
X0013736Y0103985D01*
X0013889Y0104024D01*
X0014043Y0104058D01*
X0014198Y0104089D01*
X0014353Y0104115D01*
X0014509Y0104138D01*
X0014666Y0104157D01*
X0014823Y0104172D01*
X0014980Y0104183D01*
X0015138Y0104190D01*
X0015296Y0104193D01*
X0015453Y0104192D01*
X0015611Y0104187D01*
X0015768Y0104178D01*
X0015926Y0104165D01*
X0016082Y0104148D01*
X0016239Y0104127D01*
X0016394Y0104103D01*
X0016549Y0104074D01*
X0016704Y0104041D01*
X0016857Y0104005D01*
X0017010Y0103964D01*
X0017161Y0103920D01*
X0017311Y0103872D01*
X0017460Y0103821D01*
X0017608Y0103765D01*
X0017754Y0103706D01*
X0017899Y0103643D01*
X0018042Y0103576D01*
X0018183Y0103506D01*
X0018322Y0103433D01*
X0018460Y0103356D01*
X0018596Y0103275D01*
X0018729Y0103191D01*
X0018860Y0103104D01*
X0018989Y0103013D01*
X0019116Y0102919D01*
X0019241Y0102822D01*
X0019362Y0102722D01*
X0019482Y0102619D01*
X0019598Y0102513D01*
X0019712Y0102404D01*
X0019824Y0102292D01*
X0019932Y0102178D01*
X0020037Y0102060D01*
X0020140Y0101940D01*
X0020239Y0101818D01*
X0020335Y0101693D01*
X0020428Y0101565D01*
X0020518Y0101436D01*
X0020604Y0101304D01*
X0020688Y0101170D01*
X0020767Y0101034D01*
X0020844Y0100896D01*
X0020916Y0100756D01*
X0020985Y0100614D01*
X0021051Y0100471D01*
X0021113Y0100326D01*
X0021171Y0100179D01*
X0021226Y0100031D01*
X0021277Y0099882D01*
X0021324Y0099731D01*
X0021367Y0099580D01*
X0021406Y0099427D01*
X0021442Y0099273D01*
X0021473Y0099119D01*
X0021501Y0098964D01*
X0021525Y0098808D01*
X0021545Y0098651D01*
X0021561Y0098494D01*
X0021573Y0098337D01*
X0021581Y0098180D01*
X0021585Y0098022D01*
X0021585Y0097864D01*
X0021581Y0097706D01*
X0021573Y0097549D01*
X0021561Y0097392D01*
X0021545Y0097235D01*
X0021525Y0097078D01*
X0021501Y0096922D01*
X0021473Y0096767D01*
X0021442Y0096613D01*
X0021406Y0096459D01*
X0021367Y0096306D01*
X0021324Y0096155D01*
X0021277Y0096004D01*
X0021226Y0095855D01*
X0021171Y0095707D01*
X0021113Y0095560D01*
X0021051Y0095415D01*
X0020985Y0095272D01*
X0020916Y0095130D01*
X0020844Y0094990D01*
X0020767Y0094852D01*
X0020688Y0094716D01*
X0020604Y0094582D01*
X0020518Y0094450D01*
X0020428Y0094321D01*
X0020335Y0094193D01*
X0020239Y0094068D01*
X0020140Y0093946D01*
X0020037Y0093826D01*
X0019932Y0093708D01*
X0019824Y0093594D01*
X0019712Y0093482D01*
X0019598Y0093373D01*
X0019482Y0093267D01*
X0019362Y0093164D01*
X0019241Y0093064D01*
X0019116Y0092967D01*
X0018989Y0092873D01*
X0018860Y0092782D01*
X0018729Y0092695D01*
X0018596Y0092611D01*
X0018460Y0092530D01*
X0018322Y0092453D01*
X0018183Y0092380D01*
X0018042Y0092310D01*
X0017899Y0092243D01*
X0017754Y0092180D01*
X0017608Y0092121D01*
X0017460Y0092065D01*
X0017311Y0092014D01*
X0017161Y0091966D01*
X0017010Y0091922D01*
X0016857Y0091881D01*
X0016704Y0091845D01*
X0016549Y0091812D01*
X0016394Y0091783D01*
X0016239Y0091759D01*
X0016082Y0091738D01*
X0015926Y0091721D01*
X0015768Y0091708D01*
X0015611Y0091699D01*
X0015453Y0091694D01*
X0015296Y0091693D01*
X0015138Y0091696D01*
X0014980Y0091703D01*
X0014823Y0091714D01*
X0014666Y0091729D01*
X0014509Y0091748D01*
X0014353Y0091771D01*
X0014198Y0091797D01*
X0014043Y0091828D01*
X0013889Y0091862D01*
X0013736Y0091901D01*
X0013584Y0091943D01*
X0013434Y0091989D01*
X0013284Y0092039D01*
X0013136Y0092093D01*
X0012989Y0092150D01*
X0012843Y0092211D01*
X0012700Y0092276D01*
X0012557Y0092344D01*
X0012417Y0092416D01*
X0012279Y0092491D01*
X0012142Y0092570D01*
X0012007Y0092652D01*
X0011875Y0092738D01*
X0011745Y0092827D01*
X0011617Y0092919D01*
X0011491Y0093015D01*
X0011368Y0093113D01*
X0011248Y0093215D01*
X0011130Y0093320D01*
X0011014Y0093427D01*
X0010902Y0093538D01*
X0010792Y0093651D01*
X0010685Y0093767D01*
X0010581Y0093885D01*
X0010480Y0094007D01*
X0010383Y0094130D01*
X0010288Y0094257D01*
X0010197Y0094385D01*
X0010108Y0094516D01*
X0010024Y0094649D01*
X0009942Y0094784D01*
X0009864Y0094921D01*
X0009790Y0095060D01*
X0009719Y0095201D01*
X0009651Y0095343D01*
X0009588Y0095488D01*
X0009527Y0095633D01*
X0009471Y0095781D01*
X0009418Y0095929D01*
X0009369Y0096079D01*
X0009324Y0096230D01*
X0009283Y0096383D01*
X0009245Y0096536D01*
X0009212Y0096690D01*
X0009182Y0096845D01*
X0009156Y0097000D01*
X0009135Y0097157D01*
X0009117Y0097313D01*
X0009103Y0097470D01*
X0009093Y0097628D01*
X0009087Y0097785D01*
X0009085Y0097943D01*
X0089085Y0017943D02*
X0089087Y0018101D01*
X0089093Y0018258D01*
X0089103Y0018416D01*
X0089117Y0018573D01*
X0089135Y0018729D01*
X0089156Y0018886D01*
X0089182Y0019041D01*
X0089212Y0019196D01*
X0089245Y0019350D01*
X0089283Y0019503D01*
X0089324Y0019656D01*
X0089369Y0019807D01*
X0089418Y0019957D01*
X0089471Y0020105D01*
X0089527Y0020253D01*
X0089588Y0020398D01*
X0089651Y0020543D01*
X0089719Y0020685D01*
X0089790Y0020826D01*
X0089864Y0020965D01*
X0089942Y0021102D01*
X0090024Y0021237D01*
X0090108Y0021370D01*
X0090197Y0021501D01*
X0090288Y0021629D01*
X0090383Y0021756D01*
X0090480Y0021879D01*
X0090581Y0022001D01*
X0090685Y0022119D01*
X0090792Y0022235D01*
X0090902Y0022348D01*
X0091014Y0022459D01*
X0091130Y0022566D01*
X0091248Y0022671D01*
X0091368Y0022773D01*
X0091491Y0022871D01*
X0091617Y0022967D01*
X0091745Y0023059D01*
X0091875Y0023148D01*
X0092007Y0023234D01*
X0092142Y0023316D01*
X0092279Y0023395D01*
X0092417Y0023470D01*
X0092557Y0023542D01*
X0092700Y0023610D01*
X0092843Y0023675D01*
X0092989Y0023736D01*
X0093136Y0023793D01*
X0093284Y0023847D01*
X0093434Y0023897D01*
X0093584Y0023943D01*
X0093736Y0023985D01*
X0093889Y0024024D01*
X0094043Y0024058D01*
X0094198Y0024089D01*
X0094353Y0024115D01*
X0094509Y0024138D01*
X0094666Y0024157D01*
X0094823Y0024172D01*
X0094980Y0024183D01*
X0095138Y0024190D01*
X0095296Y0024193D01*
X0095453Y0024192D01*
X0095611Y0024187D01*
X0095768Y0024178D01*
X0095926Y0024165D01*
X0096082Y0024148D01*
X0096239Y0024127D01*
X0096394Y0024103D01*
X0096549Y0024074D01*
X0096704Y0024041D01*
X0096857Y0024005D01*
X0097010Y0023964D01*
X0097161Y0023920D01*
X0097311Y0023872D01*
X0097460Y0023821D01*
X0097608Y0023765D01*
X0097754Y0023706D01*
X0097899Y0023643D01*
X0098042Y0023576D01*
X0098183Y0023506D01*
X0098322Y0023433D01*
X0098460Y0023356D01*
X0098596Y0023275D01*
X0098729Y0023191D01*
X0098860Y0023104D01*
X0098989Y0023013D01*
X0099116Y0022919D01*
X0099241Y0022822D01*
X0099362Y0022722D01*
X0099482Y0022619D01*
X0099598Y0022513D01*
X0099712Y0022404D01*
X0099824Y0022292D01*
X0099932Y0022178D01*
X0100037Y0022060D01*
X0100140Y0021940D01*
X0100239Y0021818D01*
X0100335Y0021693D01*
X0100428Y0021565D01*
X0100518Y0021436D01*
X0100604Y0021304D01*
X0100688Y0021170D01*
X0100767Y0021034D01*
X0100844Y0020896D01*
X0100916Y0020756D01*
X0100985Y0020614D01*
X0101051Y0020471D01*
X0101113Y0020326D01*
X0101171Y0020179D01*
X0101226Y0020031D01*
X0101277Y0019882D01*
X0101324Y0019731D01*
X0101367Y0019580D01*
X0101406Y0019427D01*
X0101442Y0019273D01*
X0101473Y0019119D01*
X0101501Y0018964D01*
X0101525Y0018808D01*
X0101545Y0018651D01*
X0101561Y0018494D01*
X0101573Y0018337D01*
X0101581Y0018180D01*
X0101585Y0018022D01*
X0101585Y0017864D01*
X0101581Y0017706D01*
X0101573Y0017549D01*
X0101561Y0017392D01*
X0101545Y0017235D01*
X0101525Y0017078D01*
X0101501Y0016922D01*
X0101473Y0016767D01*
X0101442Y0016613D01*
X0101406Y0016459D01*
X0101367Y0016306D01*
X0101324Y0016155D01*
X0101277Y0016004D01*
X0101226Y0015855D01*
X0101171Y0015707D01*
X0101113Y0015560D01*
X0101051Y0015415D01*
X0100985Y0015272D01*
X0100916Y0015130D01*
X0100844Y0014990D01*
X0100767Y0014852D01*
X0100688Y0014716D01*
X0100604Y0014582D01*
X0100518Y0014450D01*
X0100428Y0014321D01*
X0100335Y0014193D01*
X0100239Y0014068D01*
X0100140Y0013946D01*
X0100037Y0013826D01*
X0099932Y0013708D01*
X0099824Y0013594D01*
X0099712Y0013482D01*
X0099598Y0013373D01*
X0099482Y0013267D01*
X0099362Y0013164D01*
X0099241Y0013064D01*
X0099116Y0012967D01*
X0098989Y0012873D01*
X0098860Y0012782D01*
X0098729Y0012695D01*
X0098596Y0012611D01*
X0098460Y0012530D01*
X0098322Y0012453D01*
X0098183Y0012380D01*
X0098042Y0012310D01*
X0097899Y0012243D01*
X0097754Y0012180D01*
X0097608Y0012121D01*
X0097460Y0012065D01*
X0097311Y0012014D01*
X0097161Y0011966D01*
X0097010Y0011922D01*
X0096857Y0011881D01*
X0096704Y0011845D01*
X0096549Y0011812D01*
X0096394Y0011783D01*
X0096239Y0011759D01*
X0096082Y0011738D01*
X0095926Y0011721D01*
X0095768Y0011708D01*
X0095611Y0011699D01*
X0095453Y0011694D01*
X0095296Y0011693D01*
X0095138Y0011696D01*
X0094980Y0011703D01*
X0094823Y0011714D01*
X0094666Y0011729D01*
X0094509Y0011748D01*
X0094353Y0011771D01*
X0094198Y0011797D01*
X0094043Y0011828D01*
X0093889Y0011862D01*
X0093736Y0011901D01*
X0093584Y0011943D01*
X0093434Y0011989D01*
X0093284Y0012039D01*
X0093136Y0012093D01*
X0092989Y0012150D01*
X0092843Y0012211D01*
X0092700Y0012276D01*
X0092557Y0012344D01*
X0092417Y0012416D01*
X0092279Y0012491D01*
X0092142Y0012570D01*
X0092007Y0012652D01*
X0091875Y0012738D01*
X0091745Y0012827D01*
X0091617Y0012919D01*
X0091491Y0013015D01*
X0091368Y0013113D01*
X0091248Y0013215D01*
X0091130Y0013320D01*
X0091014Y0013427D01*
X0090902Y0013538D01*
X0090792Y0013651D01*
X0090685Y0013767D01*
X0090581Y0013885D01*
X0090480Y0014007D01*
X0090383Y0014130D01*
X0090288Y0014257D01*
X0090197Y0014385D01*
X0090108Y0014516D01*
X0090024Y0014649D01*
X0089942Y0014784D01*
X0089864Y0014921D01*
X0089790Y0015060D01*
X0089719Y0015201D01*
X0089651Y0015343D01*
X0089588Y0015488D01*
X0089527Y0015633D01*
X0089471Y0015781D01*
X0089418Y0015929D01*
X0089369Y0016079D01*
X0089324Y0016230D01*
X0089283Y0016383D01*
X0089245Y0016536D01*
X0089212Y0016690D01*
X0089182Y0016845D01*
X0089156Y0017000D01*
X0089135Y0017157D01*
X0089117Y0017313D01*
X0089103Y0017470D01*
X0089093Y0017628D01*
X0089087Y0017785D01*
X0089085Y0017943D01*
D11*
X0084121Y0077462D03*
X0079095Y0077462D03*
X0076493Y0076699D03*
D12*
X0086746Y0076699D03*
D13*
X0076470Y0076744D03*
D14*
X0079073Y0077507D03*
X0084143Y0077507D03*
X0086746Y0076744D03*
D15*
X0086723Y0076789D03*
X0076493Y0076789D03*
X0086723Y0090071D03*
D16*
X0084210Y0077597D03*
X0086723Y0076834D03*
X0079005Y0077597D03*
X0076493Y0076834D03*
D17*
X0076515Y0076879D03*
X0086701Y0076879D03*
X0086701Y0089981D03*
X0076515Y0089981D03*
D18*
X0084278Y0077687D03*
X0076515Y0076924D03*
D19*
X0078938Y0077687D03*
X0086701Y0076924D03*
D20*
X0076537Y0076969D03*
X0076537Y0089892D03*
X0086678Y0089892D03*
D21*
X0084323Y0077731D03*
X0086701Y0076969D03*
X0078893Y0077731D03*
D22*
X0076537Y0077013D03*
D23*
X0086678Y0077013D03*
D24*
X0086678Y0077058D03*
X0076537Y0077058D03*
D25*
X0076560Y0077103D03*
D26*
X0086656Y0077103D03*
D27*
X0086656Y0077148D03*
X0076560Y0077148D03*
D28*
X0076582Y0077193D03*
X0086634Y0077193D03*
D29*
X0076582Y0077238D03*
D30*
X0086634Y0077238D03*
D31*
X0086611Y0077283D03*
X0076605Y0077283D03*
X0086611Y0089578D03*
D32*
X0086611Y0077328D03*
X0076605Y0077328D03*
D33*
X0076627Y0077372D03*
X0086589Y0077372D03*
X0086589Y0089488D03*
X0076627Y0089488D03*
D34*
X0076627Y0077417D03*
X0086589Y0077417D03*
D35*
X0086566Y0077462D03*
X0076650Y0077462D03*
D36*
X0076650Y0077507D03*
D37*
X0086566Y0077507D03*
D38*
X0076672Y0077552D03*
X0076672Y0089308D03*
X0081608Y0091866D03*
X0086544Y0089308D03*
D39*
X0079050Y0077552D03*
D40*
X0084188Y0077552D03*
D41*
X0086566Y0077552D03*
D42*
X0076672Y0077597D03*
D43*
X0086544Y0077597D03*
X0081608Y0091776D03*
X0081608Y0091821D03*
D44*
X0081630Y0091507D03*
X0086521Y0089219D03*
X0076694Y0089219D03*
X0076694Y0077642D03*
D45*
X0078960Y0077642D03*
X0084255Y0077642D03*
D46*
X0086544Y0077642D03*
D47*
X0086521Y0077687D03*
X0076694Y0077687D03*
D48*
X0076717Y0077731D03*
X0076717Y0089129D03*
X0081608Y0090834D03*
X0081608Y0090879D03*
X0081608Y0090969D03*
X0086499Y0089129D03*
D49*
X0081630Y0091013D03*
X0086521Y0077731D03*
D50*
X0076717Y0077776D03*
D51*
X0078893Y0077776D03*
X0084368Y0077776D03*
D52*
X0086499Y0077776D03*
X0086499Y0089084D03*
X0081608Y0090565D03*
X0081608Y0090610D03*
X0081608Y0090654D03*
D53*
X0086499Y0077821D03*
X0076717Y0077821D03*
D54*
X0078848Y0077821D03*
X0084368Y0077821D03*
X0086656Y0089847D03*
X0076560Y0089847D03*
D55*
X0077278Y0077866D03*
X0085938Y0077866D03*
D56*
X0085085Y0080065D03*
X0077278Y0077911D03*
D57*
X0085938Y0077911D03*
D58*
X0085960Y0077956D03*
X0085153Y0079930D03*
X0077255Y0077956D03*
D59*
X0077255Y0078001D03*
X0077928Y0079661D03*
X0078018Y0079840D03*
X0078153Y0080244D03*
X0085063Y0080244D03*
X0085243Y0079751D03*
X0085332Y0079616D03*
D60*
X0085198Y0079840D03*
X0085960Y0078001D03*
X0077973Y0079751D03*
D61*
X0077906Y0079616D03*
X0077861Y0079571D03*
X0077861Y0079526D03*
X0077816Y0079481D03*
X0078175Y0080289D03*
X0078175Y0080334D03*
X0077233Y0078045D03*
X0085041Y0080289D03*
X0085310Y0079661D03*
X0085355Y0079571D03*
X0085400Y0079481D03*
X0085983Y0078045D03*
D62*
X0086005Y0078090D03*
X0085467Y0079347D03*
X0085467Y0079392D03*
X0077749Y0079347D03*
X0077704Y0079257D03*
X0077210Y0078090D03*
D63*
X0077210Y0078135D03*
X0077569Y0079033D03*
X0077614Y0079078D03*
X0077614Y0079122D03*
X0078153Y0080469D03*
X0077659Y0085045D03*
X0077704Y0085090D03*
X0085557Y0085045D03*
X0085063Y0080469D03*
X0085602Y0079122D03*
X0085646Y0079033D03*
X0086005Y0078135D03*
D64*
X0086028Y0078180D03*
X0077188Y0078180D03*
X0077771Y0085180D03*
D65*
X0077502Y0081904D03*
X0077771Y0081635D03*
X0078175Y0080648D03*
X0078175Y0080603D03*
X0077188Y0078270D03*
X0077188Y0078225D03*
X0085444Y0081635D03*
X0085714Y0081904D03*
X0085938Y0078539D03*
X0085938Y0078494D03*
X0085400Y0085270D03*
D66*
X0085355Y0085315D03*
X0085041Y0080648D03*
X0085041Y0080603D03*
X0085893Y0078584D03*
X0086028Y0078315D03*
X0086028Y0078270D03*
X0086028Y0078225D03*
X0077368Y0078629D03*
X0077323Y0078584D03*
X0077278Y0078494D03*
X0077816Y0085270D03*
D67*
X0077884Y0085315D03*
X0077794Y0081590D03*
X0077300Y0078539D03*
X0077210Y0078404D03*
X0077210Y0078360D03*
X0077210Y0078315D03*
X0085377Y0081545D03*
X0085422Y0081590D03*
X0086005Y0078404D03*
X0086005Y0078360D03*
X0081608Y0089263D03*
D68*
X0085063Y0080693D03*
X0085960Y0078449D03*
X0078153Y0080693D03*
X0077255Y0078449D03*
D69*
X0077390Y0078719D03*
X0077435Y0078763D03*
X0077480Y0078853D03*
X0077704Y0081725D03*
X0077794Y0085225D03*
X0085422Y0085225D03*
X0085557Y0081770D03*
X0085512Y0081725D03*
X0085063Y0080558D03*
X0085781Y0078808D03*
X0085781Y0078763D03*
X0085826Y0078719D03*
X0085871Y0078629D03*
D70*
X0085467Y0085180D03*
X0077749Y0081680D03*
X0077390Y0078674D03*
D71*
X0085848Y0078674D03*
D72*
X0085759Y0078853D03*
X0085714Y0078898D03*
X0085669Y0078988D03*
X0085041Y0080513D03*
X0085624Y0081860D03*
X0085624Y0085001D03*
X0085534Y0085090D03*
X0085489Y0085135D03*
X0078175Y0080558D03*
X0078175Y0080513D03*
X0077682Y0081770D03*
X0077637Y0081815D03*
X0077547Y0078988D03*
X0077502Y0078898D03*
X0077457Y0078808D03*
X0077727Y0085135D03*
D73*
X0077525Y0078943D03*
X0085691Y0078943D03*
D74*
X0085624Y0079078D03*
X0085579Y0079167D03*
X0085534Y0079257D03*
X0085489Y0079302D03*
X0078175Y0080379D03*
X0077727Y0079302D03*
X0077637Y0079167D03*
D75*
X0077682Y0079212D03*
X0078175Y0080424D03*
X0085041Y0080424D03*
X0085534Y0079212D03*
D76*
X0085377Y0079526D03*
X0085063Y0080334D03*
X0085063Y0080379D03*
X0077794Y0079392D03*
X0081608Y0089308D03*
D77*
X0077794Y0079437D03*
D78*
X0085422Y0079437D03*
D79*
X0085287Y0079706D03*
X0077928Y0079706D03*
D80*
X0077996Y0079795D03*
X0078041Y0079885D03*
X0078085Y0079975D03*
X0078175Y0080154D03*
X0085130Y0079975D03*
X0085175Y0079885D03*
X0085220Y0079795D03*
D81*
X0085041Y0080199D03*
X0078175Y0080199D03*
X0078085Y0079930D03*
D82*
X0078108Y0080020D03*
X0078153Y0080065D03*
X0078153Y0080110D03*
X0085063Y0080110D03*
X0085063Y0080154D03*
X0085108Y0080020D03*
X0081608Y0089353D03*
D83*
X0085265Y0085404D03*
X0085310Y0085360D03*
X0085041Y0080738D03*
X0078175Y0080738D03*
X0078175Y0080783D03*
X0077861Y0081545D03*
X0077906Y0085360D03*
D84*
X0077884Y0081501D03*
X0085063Y0080783D03*
X0085332Y0081501D03*
D85*
X0085265Y0081411D03*
X0085041Y0080872D03*
X0085041Y0080828D03*
X0078175Y0080828D03*
X0078175Y0080872D03*
D86*
X0078175Y0080917D03*
X0078175Y0081007D03*
X0078041Y0081321D03*
X0077996Y0081366D03*
X0085175Y0081321D03*
X0085220Y0081366D03*
X0085175Y0085494D03*
D87*
X0081608Y0089219D03*
X0078063Y0085494D03*
X0085063Y0080917D03*
D88*
X0085041Y0080962D03*
X0078175Y0080962D03*
D89*
X0078108Y0085539D03*
X0085108Y0085539D03*
X0085063Y0081007D03*
D90*
X0085041Y0081052D03*
X0085041Y0081097D03*
X0085130Y0081276D03*
X0078175Y0081097D03*
X0078175Y0081052D03*
X0078130Y0081231D03*
X0078085Y0081276D03*
D91*
X0078153Y0081142D03*
X0077210Y0081994D03*
X0078153Y0085584D03*
X0085063Y0085584D03*
X0086005Y0081994D03*
X0085108Y0081231D03*
X0085063Y0081142D03*
D92*
X0085063Y0081187D03*
X0078153Y0081187D03*
D93*
X0077973Y0081411D03*
D94*
X0077928Y0081456D03*
X0077435Y0084956D03*
X0085781Y0084956D03*
D95*
X0085220Y0085449D03*
X0085310Y0081456D03*
X0077368Y0081949D03*
X0077996Y0085449D03*
D96*
X0085489Y0081680D03*
D97*
X0085579Y0081815D03*
X0077592Y0081860D03*
X0077592Y0085001D03*
D98*
X0085871Y0081949D03*
D99*
X0077098Y0082039D03*
D100*
X0086140Y0082039D03*
D101*
X0086252Y0082084D03*
X0076964Y0082084D03*
D102*
X0076807Y0082129D03*
X0086409Y0082129D03*
D103*
X0076672Y0082174D03*
D104*
X0086566Y0082174D03*
D105*
X0086678Y0082219D03*
X0086993Y0082981D03*
X0086993Y0083026D03*
X0086993Y0083071D03*
X0086993Y0083116D03*
X0086993Y0083161D03*
X0086993Y0083251D03*
X0086993Y0083295D03*
X0086993Y0083610D03*
X0086993Y0083654D03*
X0086993Y0083744D03*
X0086993Y0083789D03*
X0086993Y0083834D03*
X0086993Y0083879D03*
X0076537Y0082219D03*
X0076223Y0083026D03*
X0076223Y0083071D03*
X0076223Y0083116D03*
X0076223Y0083161D03*
X0076223Y0083251D03*
X0076223Y0083295D03*
X0076223Y0083340D03*
X0076223Y0083385D03*
X0076223Y0083475D03*
X0076223Y0083520D03*
X0076223Y0083565D03*
X0076223Y0083610D03*
X0076223Y0083654D03*
X0076223Y0083744D03*
X0076223Y0083789D03*
X0076223Y0083834D03*
X0076223Y0083879D03*
D106*
X0076313Y0084372D03*
X0076313Y0084417D03*
X0076313Y0082488D03*
X0076403Y0082263D03*
X0086813Y0082263D03*
X0086903Y0082488D03*
X0086903Y0084372D03*
X0086903Y0084417D03*
D107*
X0086880Y0084507D03*
X0086835Y0084597D03*
X0086880Y0082398D03*
X0086880Y0082353D03*
X0076380Y0082308D03*
X0076335Y0082353D03*
X0076335Y0082398D03*
X0076335Y0084507D03*
X0076380Y0084597D03*
D108*
X0076358Y0084552D03*
X0086858Y0084552D03*
X0086858Y0082308D03*
D109*
X0086903Y0082443D03*
X0076313Y0082443D03*
D110*
X0076291Y0082533D03*
X0076291Y0082578D03*
X0076291Y0082622D03*
X0076291Y0084238D03*
X0076291Y0084283D03*
X0076291Y0084328D03*
X0086925Y0084328D03*
X0086925Y0084283D03*
X0086925Y0084238D03*
X0086925Y0082622D03*
X0086925Y0082578D03*
X0086925Y0082533D03*
D111*
X0086948Y0082667D03*
X0086948Y0082757D03*
X0086948Y0084103D03*
X0086948Y0084148D03*
X0086723Y0084642D03*
X0076493Y0084642D03*
X0076268Y0084148D03*
X0076268Y0084103D03*
X0076268Y0082757D03*
X0076268Y0082667D03*
D112*
X0076268Y0082712D03*
X0076268Y0084193D03*
X0081608Y0088949D03*
X0086948Y0084193D03*
X0086948Y0082712D03*
D113*
X0086970Y0082802D03*
X0086970Y0082847D03*
X0086970Y0082892D03*
X0086970Y0083969D03*
X0086970Y0084013D03*
X0086970Y0084058D03*
X0076246Y0084058D03*
X0076246Y0084013D03*
X0076246Y0083969D03*
X0076246Y0082981D03*
X0076246Y0082892D03*
X0076246Y0082847D03*
X0076246Y0082802D03*
D114*
X0076246Y0082937D03*
X0076246Y0083924D03*
X0086970Y0083924D03*
X0086970Y0082937D03*
D115*
X0086993Y0083206D03*
X0086993Y0083699D03*
X0076223Y0083699D03*
X0076223Y0083430D03*
X0076223Y0083206D03*
D116*
X0087015Y0083340D03*
X0087015Y0083385D03*
X0087015Y0083475D03*
X0087015Y0083520D03*
X0087015Y0083565D03*
D117*
X0087015Y0083430D03*
D118*
X0086880Y0084462D03*
X0076335Y0084462D03*
D119*
X0076627Y0084687D03*
D120*
X0086611Y0084687D03*
D121*
X0086477Y0084731D03*
X0076739Y0084731D03*
D122*
X0076896Y0084776D03*
X0078512Y0085763D03*
X0081608Y0089084D03*
X0084704Y0085763D03*
X0086319Y0084776D03*
D123*
X0077031Y0084821D03*
D124*
X0086185Y0084821D03*
D125*
X0077166Y0084866D03*
D126*
X0086073Y0084866D03*
D127*
X0085916Y0084911D03*
X0077300Y0084911D03*
D128*
X0077951Y0085404D03*
D129*
X0078220Y0085629D03*
X0084996Y0085629D03*
D130*
X0084928Y0085674D03*
X0078287Y0085674D03*
D131*
X0078400Y0085719D03*
X0084816Y0085719D03*
D132*
X0081630Y0085808D03*
D133*
X0081608Y0085853D03*
X0081608Y0085898D03*
D134*
X0081608Y0085943D03*
D135*
X0081608Y0085988D03*
X0081608Y0087110D03*
D136*
X0081630Y0086033D03*
D137*
X0081608Y0086078D03*
X0081608Y0087065D03*
D138*
X0081630Y0086122D03*
D139*
X0081608Y0086167D03*
X0081608Y0086975D03*
X0081608Y0087020D03*
D140*
X0081630Y0086212D03*
D141*
X0081608Y0086257D03*
X0081608Y0086302D03*
D142*
X0081608Y0086347D03*
X0081608Y0086392D03*
X0081608Y0086840D03*
X0081608Y0086885D03*
D143*
X0081630Y0086437D03*
D144*
X0081608Y0086481D03*
X0081608Y0086526D03*
X0081608Y0086795D03*
D145*
X0081608Y0086751D03*
X0081608Y0086661D03*
X0081608Y0086616D03*
X0081608Y0086571D03*
D146*
X0081608Y0086706D03*
D147*
X0081608Y0086930D03*
D148*
X0081630Y0087154D03*
D149*
X0081608Y0087199D03*
D150*
X0081608Y0087244D03*
D151*
X0081630Y0087289D03*
D152*
X0081608Y0087334D03*
D153*
X0081608Y0087379D03*
D154*
X0081630Y0087424D03*
D155*
X0081608Y0087469D03*
D156*
X0081608Y0087513D03*
D157*
X0081630Y0087558D03*
D158*
X0081608Y0087603D03*
D159*
X0081608Y0087648D03*
D160*
X0081608Y0087693D03*
D161*
X0081630Y0087738D03*
D162*
X0081608Y0087783D03*
D163*
X0081608Y0087828D03*
D164*
X0081630Y0087872D03*
D165*
X0081608Y0087917D03*
D166*
X0081608Y0087962D03*
D167*
X0081608Y0088007D03*
D168*
X0081608Y0088052D03*
D169*
X0081608Y0088097D03*
X0081608Y0088904D03*
D170*
X0081630Y0088142D03*
D171*
X0081608Y0088187D03*
D172*
X0081608Y0088231D03*
X0081608Y0088815D03*
D173*
X0081630Y0088276D03*
D174*
X0081608Y0088321D03*
X0081608Y0088770D03*
D175*
X0081608Y0088725D03*
X0081608Y0088366D03*
D176*
X0081608Y0088411D03*
D177*
X0081608Y0088456D03*
X0081608Y0088680D03*
D178*
X0081608Y0088635D03*
X0081608Y0088590D03*
X0081608Y0088545D03*
X0081608Y0088501D03*
D179*
X0081608Y0088860D03*
D180*
X0081608Y0089712D03*
X0086454Y0088949D03*
X0076762Y0088949D03*
D181*
X0076739Y0088994D03*
X0081630Y0090026D03*
X0086477Y0088994D03*
D182*
X0081630Y0088994D03*
D183*
X0081630Y0090295D03*
X0086477Y0089039D03*
X0076739Y0089039D03*
D184*
X0081608Y0089039D03*
D185*
X0081630Y0090520D03*
X0076739Y0089084D03*
D186*
X0081608Y0089129D03*
D187*
X0081608Y0091193D03*
X0086499Y0089174D03*
X0076717Y0089174D03*
D188*
X0081608Y0089174D03*
D189*
X0081630Y0091731D03*
X0086521Y0089263D03*
X0076694Y0089263D03*
D190*
X0076672Y0089353D03*
X0086544Y0089353D03*
D191*
X0086566Y0089398D03*
X0076650Y0089398D03*
D192*
X0081630Y0089398D03*
D193*
X0086566Y0089443D03*
X0076650Y0089443D03*
D194*
X0081608Y0089443D03*
D195*
X0081630Y0089488D03*
D196*
X0086589Y0089533D03*
X0076627Y0089533D03*
D197*
X0081608Y0089533D03*
D198*
X0076627Y0089578D03*
D199*
X0081608Y0089578D03*
D200*
X0086611Y0089622D03*
X0076605Y0089622D03*
D201*
X0081630Y0089622D03*
D202*
X0076605Y0089667D03*
D203*
X0081608Y0089667D03*
X0081608Y0089757D03*
D204*
X0086634Y0089667D03*
D205*
X0086634Y0089712D03*
X0076582Y0089712D03*
D206*
X0076582Y0089757D03*
X0086634Y0089757D03*
D207*
X0086656Y0089802D03*
X0076560Y0089802D03*
D208*
X0081630Y0089802D03*
D209*
X0081608Y0089847D03*
X0081608Y0089892D03*
X0081608Y0089981D03*
D210*
X0086678Y0089937D03*
X0076537Y0089937D03*
D211*
X0081608Y0089937D03*
D212*
X0086701Y0090026D03*
X0076515Y0090026D03*
D213*
X0076515Y0090071D03*
D214*
X0081608Y0090071D03*
X0081608Y0090116D03*
X0081608Y0090161D03*
X0081608Y0090251D03*
D215*
X0086723Y0090116D03*
X0076493Y0090116D03*
D216*
X0076493Y0090161D03*
D217*
X0086746Y0090161D03*
D218*
X0081608Y0090206D03*
D219*
X0081608Y0090340D03*
X0081608Y0090385D03*
X0081608Y0090475D03*
D220*
X0081608Y0090430D03*
D221*
X0081608Y0090699D03*
D222*
X0081630Y0090744D03*
X0081630Y0090789D03*
D223*
X0081608Y0090924D03*
D224*
X0081608Y0091058D03*
X0081608Y0091103D03*
X0081608Y0091148D03*
D225*
X0081630Y0091238D03*
D226*
X0081608Y0091283D03*
X0081608Y0091328D03*
X0081608Y0091372D03*
X0081608Y0091417D03*
D227*
X0081630Y0091462D03*
D228*
X0081608Y0091552D03*
X0081608Y0091597D03*
X0081608Y0091642D03*
D229*
X0081608Y0091687D03*
D230*
X0069135Y0071742D02*
X0042934Y0071742D01*
X0041536Y0070345D01*
X0041536Y0044144D01*
X0069135Y0044144D01*
X0069135Y0071742D01*
X0043121Y0068743D02*
X0043123Y0068818D01*
X0043129Y0068892D01*
X0043139Y0068966D01*
X0043152Y0069039D01*
X0043170Y0069112D01*
X0043191Y0069183D01*
X0043216Y0069254D01*
X0043245Y0069323D01*
X0043278Y0069390D01*
X0043314Y0069455D01*
X0043353Y0069519D01*
X0043395Y0069580D01*
X0043441Y0069639D01*
X0043490Y0069696D01*
X0043542Y0069749D01*
X0043596Y0069800D01*
X0043653Y0069849D01*
X0043713Y0069893D01*
X0043775Y0069935D01*
X0043839Y0069974D01*
X0043905Y0070009D01*
X0043972Y0070040D01*
X0044042Y0070068D01*
X0044112Y0070092D01*
X0044184Y0070113D01*
X0044257Y0070129D01*
X0044330Y0070142D01*
X0044405Y0070151D01*
X0044479Y0070156D01*
X0044554Y0070157D01*
X0044628Y0070154D01*
X0044703Y0070147D01*
X0044776Y0070136D01*
X0044850Y0070122D01*
X0044922Y0070103D01*
X0044993Y0070081D01*
X0045063Y0070055D01*
X0045132Y0070025D01*
X0045198Y0069992D01*
X0045263Y0069955D01*
X0045326Y0069915D01*
X0045387Y0069871D01*
X0045445Y0069825D01*
X0045501Y0069775D01*
X0045554Y0069723D01*
X0045605Y0069668D01*
X0045652Y0069610D01*
X0045696Y0069550D01*
X0045737Y0069487D01*
X0045775Y0069423D01*
X0045809Y0069357D01*
X0045840Y0069288D01*
X0045867Y0069219D01*
X0045890Y0069148D01*
X0045909Y0069076D01*
X0045925Y0069003D01*
X0045937Y0068929D01*
X0045945Y0068855D01*
X0045949Y0068780D01*
X0045949Y0068706D01*
X0045945Y0068631D01*
X0045937Y0068557D01*
X0045925Y0068483D01*
X0045909Y0068410D01*
X0045890Y0068338D01*
X0045867Y0068267D01*
X0045840Y0068198D01*
X0045809Y0068129D01*
X0045775Y0068063D01*
X0045737Y0067999D01*
X0045696Y0067936D01*
X0045652Y0067876D01*
X0045605Y0067818D01*
X0045554Y0067763D01*
X0045501Y0067711D01*
X0045445Y0067661D01*
X0045387Y0067615D01*
X0045326Y0067571D01*
X0045263Y0067531D01*
X0045198Y0067494D01*
X0045132Y0067461D01*
X0045063Y0067431D01*
X0044993Y0067405D01*
X0044922Y0067383D01*
X0044850Y0067364D01*
X0044776Y0067350D01*
X0044703Y0067339D01*
X0044628Y0067332D01*
X0044554Y0067329D01*
X0044479Y0067330D01*
X0044405Y0067335D01*
X0044330Y0067344D01*
X0044257Y0067357D01*
X0044184Y0067373D01*
X0044112Y0067394D01*
X0044042Y0067418D01*
X0043972Y0067446D01*
X0043905Y0067477D01*
X0043839Y0067512D01*
X0043775Y0067551D01*
X0043713Y0067593D01*
X0043653Y0067637D01*
X0043596Y0067686D01*
X0043542Y0067737D01*
X0043490Y0067790D01*
X0043441Y0067847D01*
X0043395Y0067906D01*
X0043353Y0067967D01*
X0043314Y0068031D01*
X0043278Y0068096D01*
X0043245Y0068163D01*
X0043216Y0068232D01*
X0043191Y0068303D01*
X0043170Y0068374D01*
X0043152Y0068447D01*
X0043139Y0068520D01*
X0043129Y0068594D01*
X0043123Y0068668D01*
X0043121Y0068743D01*
D231*
X0042797Y0079893D02*
X0044732Y0079893D01*
X0043765Y0079893D02*
X0043765Y0082795D01*
X0044732Y0081828D01*
X0045744Y0082312D02*
X0046227Y0082795D01*
X0047195Y0082795D01*
X0047679Y0082312D01*
X0047679Y0080377D01*
X0047195Y0079893D01*
X0046227Y0079893D01*
X0045744Y0080377D01*
X0048675Y0079893D02*
X0049643Y0079893D01*
X0049159Y0079893D02*
X0049159Y0082795D01*
X0049643Y0082795D02*
X0048675Y0082795D01*
X0016349Y0040817D02*
X0016349Y0038765D01*
X0014981Y0040133D01*
X0014297Y0038765D02*
X0016349Y0040817D01*
X0017749Y0038734D02*
X0018433Y0038734D01*
X0019117Y0038049D01*
X0019117Y0037365D01*
X0017749Y0035997D01*
X0017065Y0035997D01*
X0016380Y0036681D01*
X0016380Y0037365D01*
X0013433Y0033734D02*
X0012749Y0033734D01*
X0012065Y0033049D01*
X0012065Y0032365D01*
X0013091Y0031339D01*
X0012407Y0030655D02*
X0014459Y0032707D01*
X0013433Y0033734D01*
X0012375Y0034791D02*
X0011349Y0033765D01*
X0011007Y0034791D01*
X0010665Y0035133D01*
X0009981Y0035133D01*
X0009297Y0034449D01*
X0009297Y0033765D01*
X0009981Y0033081D01*
X0010665Y0033081D01*
X0011038Y0032023D02*
X0012407Y0032023D01*
X0012375Y0034791D02*
X0011007Y0036159D01*
M02*
