G75*
%MOIN*%
%OFA0B0*%
%FSLAX25Y25*%
%IPPOS*%
%LPD*%
%AMOC8*
5,1,8,0,0,1.08239X$1,22.5*
%
%ADD10R,0.09043X0.07874*%
%ADD11R,0.12992X0.07874*%
%ADD12R,0.12205X0.01969*%
%ADD13OC8,0.08500*%
%ADD14R,0.21000X0.07600*%
%ADD15R,0.05906X0.05118*%
%ADD16R,0.06299X0.07087*%
%ADD17R,0.06299X0.07874*%
%ADD18R,0.05512X0.07087*%
%ADD19R,0.05906X0.05906*%
%ADD20R,0.07874X0.06299*%
%ADD21C,0.01000*%
%ADD22C,0.03369*%
%ADD23C,0.16500*%
%ADD24C,0.01600*%
%ADD25C,0.01200*%
%ADD26C,0.03200*%
D10*
G36*
X0043675Y0015917D02*
X0037283Y0009525D01*
X0031715Y0015093D01*
X0038107Y0021485D01*
X0043675Y0015917D01*
G37*
G36*
X0019181Y0040411D02*
X0012789Y0034019D01*
X0007221Y0039587D01*
X0013613Y0045979D01*
X0019181Y0040411D01*
G37*
D11*
G36*
X0036076Y0057306D02*
X0026890Y0048120D01*
X0021322Y0053688D01*
X0030508Y0062874D01*
X0036076Y0057306D01*
G37*
G36*
X0060570Y0032812D02*
X0051384Y0023626D01*
X0045816Y0029194D01*
X0055002Y0038380D01*
X0060570Y0032812D01*
G37*
D12*
G36*
X0050689Y0042692D02*
X0042061Y0034064D01*
X0040669Y0035456D01*
X0049297Y0044084D01*
X0050689Y0042692D01*
G37*
G36*
X0048461Y0044919D02*
X0039833Y0036291D01*
X0038441Y0037683D01*
X0047069Y0046311D01*
X0048461Y0044919D01*
G37*
G36*
X0046234Y0047146D02*
X0037606Y0038518D01*
X0036214Y0039910D01*
X0044842Y0048538D01*
X0046234Y0047146D01*
G37*
G36*
X0044007Y0049374D02*
X0035379Y0040746D01*
X0033987Y0042138D01*
X0042615Y0050766D01*
X0044007Y0049374D01*
G37*
G36*
X0041780Y0051601D02*
X0033152Y0042973D01*
X0031760Y0044365D01*
X0040388Y0052993D01*
X0041780Y0051601D01*
G37*
D13*
X0012835Y0052943D03*
X0012835Y0062943D03*
X0012835Y0072943D03*
X0012835Y0082943D03*
X0030335Y0100443D03*
X0040335Y0100443D03*
X0050335Y0100443D03*
X0060335Y0100443D03*
X0070335Y0100443D03*
X0080335Y0100443D03*
X0097835Y0082943D03*
X0097835Y0072943D03*
X0097835Y0062943D03*
X0097835Y0052943D03*
X0097835Y0042943D03*
X0097835Y0032943D03*
X0080335Y0015443D03*
X0070335Y0015443D03*
X0060335Y0015443D03*
X0050335Y0015443D03*
D14*
X0038835Y0085443D03*
X0076835Y0085443D03*
D15*
X0087835Y0076683D03*
X0087835Y0069203D03*
X0027835Y0069203D03*
X0027835Y0076683D03*
D16*
X0062324Y0040443D03*
X0073347Y0040443D03*
D17*
X0073347Y0050443D03*
X0062324Y0050443D03*
X0053347Y0060443D03*
X0053347Y0070443D03*
X0042324Y0070443D03*
X0042324Y0060443D03*
D18*
X0061143Y0060443D03*
X0061143Y0070443D03*
X0074528Y0070443D03*
X0074528Y0060443D03*
D19*
X0068446Y0029193D03*
X0082225Y0029193D03*
D20*
X0084085Y0044931D03*
X0084085Y0055955D03*
D21*
X0035335Y0024193D02*
X0027835Y0031693D01*
X0027835Y0036693D01*
X0031585Y0040443D01*
X0031585Y0042798D01*
X0036770Y0047983D01*
X0042980Y0054193D01*
X0044085Y0054193D01*
X0043685Y0050443D02*
X0045335Y0050443D01*
X0047835Y0052943D01*
X0047835Y0067943D01*
X0050335Y0070443D01*
X0053347Y0070443D01*
X0061143Y0070443D01*
X0066585Y0070443D01*
X0069085Y0067943D01*
X0069085Y0057205D01*
X0062324Y0050443D01*
X0056774Y0050879D02*
X0052676Y0050879D01*
X0053675Y0051877D02*
X0056774Y0051877D01*
X0056774Y0052876D02*
X0054673Y0052876D01*
X0054990Y0053193D02*
X0055806Y0054009D01*
X0055846Y0054106D01*
X0056774Y0054106D01*
X0056774Y0046029D01*
X0057139Y0045146D01*
X0057765Y0044521D01*
X0057674Y0044184D01*
X0057674Y0040943D01*
X0061824Y0040943D01*
X0061824Y0039943D01*
X0062824Y0039943D01*
X0062824Y0040943D01*
X0066973Y0040943D01*
X0066973Y0044184D01*
X0066883Y0044521D01*
X0067508Y0045146D01*
X0067835Y0045937D01*
X0068122Y0045246D01*
X0067798Y0044464D01*
X0067798Y0036422D01*
X0068163Y0035540D01*
X0068497Y0035206D01*
X0067837Y0034546D01*
X0065016Y0034546D01*
X0064133Y0034180D01*
X0063458Y0033505D01*
X0063093Y0032623D01*
X0063093Y0025763D01*
X0063458Y0024881D01*
X0064133Y0024206D01*
X0065016Y0023840D01*
X0071876Y0023840D01*
X0072758Y0024206D01*
X0073433Y0024881D01*
X0073798Y0025763D01*
X0073798Y0032305D01*
X0074990Y0033496D01*
X0075806Y0034312D01*
X0075884Y0034500D01*
X0076974Y0034500D01*
X0077702Y0034801D01*
X0078022Y0034480D01*
X0078330Y0034353D01*
X0077913Y0034180D01*
X0077238Y0033505D01*
X0076873Y0032623D01*
X0076873Y0025763D01*
X0077238Y0024881D01*
X0077913Y0024206D01*
X0078795Y0023840D01*
X0085655Y0023840D01*
X0086537Y0024206D01*
X0087213Y0024881D01*
X0087578Y0025763D01*
X0087578Y0032623D01*
X0087213Y0033505D01*
X0086537Y0034180D01*
X0085927Y0034433D01*
X0086544Y0035050D01*
X0086985Y0036116D01*
X0086985Y0039382D01*
X0088500Y0039382D01*
X0089382Y0039747D01*
X0090057Y0040422D01*
X0090422Y0041304D01*
X0090422Y0048558D01*
X0090057Y0049440D01*
X0089382Y0050115D01*
X0088500Y0050481D01*
X0079671Y0050481D01*
X0078897Y0050160D01*
X0078897Y0051973D01*
X0078948Y0051884D01*
X0079227Y0051605D01*
X0079570Y0051407D01*
X0079951Y0051305D01*
X0083586Y0051305D01*
X0083586Y0055455D01*
X0084585Y0055455D01*
X0084585Y0051305D01*
X0088220Y0051305D01*
X0088601Y0051407D01*
X0088944Y0051605D01*
X0089223Y0051884D01*
X0089420Y0052226D01*
X0089522Y0052608D01*
X0089522Y0055455D01*
X0084586Y0055455D01*
X0084586Y0056455D01*
X0089522Y0056455D01*
X0089522Y0059302D01*
X0089420Y0059683D01*
X0089223Y0060025D01*
X0088944Y0060305D01*
X0088601Y0060502D01*
X0088220Y0060604D01*
X0084585Y0060604D01*
X0084585Y0056455D01*
X0083586Y0056455D01*
X0083586Y0060604D01*
X0079951Y0060604D01*
X0079570Y0060502D01*
X0079227Y0060305D01*
X0078948Y0060025D01*
X0078784Y0059741D01*
X0078784Y0059943D01*
X0075028Y0059943D01*
X0075028Y0060943D01*
X0074028Y0060943D01*
X0074028Y0069943D01*
X0071187Y0069943D01*
X0070728Y0070401D01*
X0068228Y0072901D01*
X0067162Y0073343D01*
X0066298Y0073343D01*
X0066298Y0074464D01*
X0065933Y0075346D01*
X0065258Y0076021D01*
X0064376Y0076386D01*
X0057909Y0076386D01*
X0057892Y0076379D01*
X0057856Y0076415D01*
X0056974Y0076780D01*
X0049720Y0076780D01*
X0048838Y0076415D01*
X0048163Y0075739D01*
X0047835Y0074949D01*
X0047508Y0075739D01*
X0046833Y0076415D01*
X0045951Y0076780D01*
X0044275Y0076780D01*
X0044420Y0077131D01*
X0044420Y0078755D01*
X0044218Y0079243D01*
X0049813Y0079243D01*
X0050695Y0079608D01*
X0051370Y0080283D01*
X0051735Y0081166D01*
X0051735Y0082543D01*
X0053751Y0082543D01*
X0053751Y0082131D01*
X0054373Y0080629D01*
X0055522Y0079480D01*
X0057023Y0078859D01*
X0058648Y0078859D01*
X0060149Y0079480D01*
X0061298Y0080629D01*
X0061920Y0082131D01*
X0061920Y0083755D01*
X0061298Y0085256D01*
X0060149Y0086405D01*
X0058648Y0087027D01*
X0057852Y0087027D01*
X0057794Y0087086D01*
X0056978Y0087901D01*
X0055912Y0088343D01*
X0051735Y0088343D01*
X0051735Y0089720D01*
X0051370Y0090602D01*
X0050695Y0091278D01*
X0049813Y0091643D01*
X0027858Y0091643D01*
X0026976Y0091278D01*
X0026301Y0090602D01*
X0025935Y0089720D01*
X0025935Y0081642D01*
X0024405Y0081642D01*
X0023523Y0081277D01*
X0022848Y0080602D01*
X0022483Y0079720D01*
X0022483Y0073647D01*
X0022848Y0072765D01*
X0023440Y0072173D01*
X0023383Y0071959D01*
X0023383Y0069703D01*
X0027335Y0069703D01*
X0027335Y0068703D01*
X0023383Y0068703D01*
X0023383Y0066943D01*
X0023290Y0066943D01*
X0021820Y0066334D01*
X0020694Y0065209D01*
X0020085Y0063739D01*
X0020085Y0062147D01*
X0020555Y0061014D01*
X0017362Y0057821D01*
X0017240Y0057943D01*
X0019485Y0060188D01*
X0019485Y0065697D01*
X0017240Y0067943D01*
X0019485Y0070188D01*
X0019485Y0075697D01*
X0017240Y0077943D01*
X0019485Y0080188D01*
X0019485Y0085697D01*
X0015890Y0089293D01*
X0017056Y0089293D01*
X0020235Y0090610D01*
X0022669Y0093043D01*
X0023985Y0096222D01*
X0023985Y0099664D01*
X0022669Y0102843D01*
X0020235Y0105276D01*
X0019591Y0105543D01*
X0027304Y0105543D01*
X0024585Y0102825D01*
X0024585Y0100943D01*
X0029835Y0100943D01*
X0029835Y0099943D01*
X0024585Y0099943D01*
X0024585Y0098061D01*
X0027954Y0094693D01*
X0029835Y0094693D01*
X0029835Y0099943D01*
X0030835Y0099943D01*
X0030835Y0094693D01*
X0032717Y0094693D01*
X0034699Y0096675D01*
X0037581Y0093793D01*
X0043090Y0093793D01*
X0045335Y0096038D01*
X0047581Y0093793D01*
X0053090Y0093793D01*
X0055335Y0096038D01*
X0057581Y0093793D01*
X0063090Y0093793D01*
X0065335Y0096038D01*
X0067581Y0093793D01*
X0073090Y0093793D01*
X0075335Y0096038D01*
X0077581Y0093793D01*
X0083090Y0093793D01*
X0086985Y0097688D01*
X0086985Y0103197D01*
X0084640Y0105543D01*
X0102935Y0105543D01*
X0102935Y0087247D01*
X0100590Y0089593D01*
X0095081Y0089593D01*
X0091185Y0085697D01*
X0091185Y0081642D01*
X0090735Y0081642D01*
X0090735Y0083520D01*
X0090294Y0084586D01*
X0089735Y0085144D01*
X0089735Y0089720D01*
X0089370Y0090602D01*
X0088695Y0091278D01*
X0087813Y0091643D01*
X0065858Y0091643D01*
X0064976Y0091278D01*
X0064301Y0090602D01*
X0063935Y0089720D01*
X0063935Y0081166D01*
X0064301Y0080283D01*
X0064976Y0079608D01*
X0065858Y0079243D01*
X0066453Y0079243D01*
X0066251Y0078755D01*
X0066251Y0077131D01*
X0066873Y0075629D01*
X0068022Y0074480D01*
X0069523Y0073859D01*
X0070273Y0073859D01*
X0070273Y0070943D01*
X0074028Y0070943D01*
X0074028Y0069943D01*
X0075028Y0069943D01*
X0075028Y0065400D01*
X0075028Y0060943D01*
X0078784Y0060943D01*
X0078784Y0064184D01*
X0078682Y0064565D01*
X0078485Y0064907D01*
X0078205Y0065187D01*
X0077863Y0065384D01*
X0077643Y0065443D01*
X0077863Y0065502D01*
X0078205Y0065699D01*
X0078485Y0065979D01*
X0078682Y0066321D01*
X0078784Y0066702D01*
X0078784Y0069943D01*
X0075028Y0069943D01*
X0075028Y0070943D01*
X0074028Y0070943D01*
X0074028Y0075486D01*
X0073655Y0075486D01*
X0073798Y0075629D01*
X0074420Y0077131D01*
X0074420Y0077926D01*
X0074478Y0077984D01*
X0075294Y0078800D01*
X0075477Y0079243D01*
X0082483Y0079243D01*
X0082483Y0073647D01*
X0082848Y0072765D01*
X0083440Y0072173D01*
X0083383Y0071959D01*
X0083383Y0069703D01*
X0087335Y0069703D01*
X0087335Y0068703D01*
X0083383Y0068703D01*
X0083383Y0066446D01*
X0083485Y0066065D01*
X0083682Y0065723D01*
X0083962Y0065443D01*
X0084304Y0065246D01*
X0084685Y0065144D01*
X0087336Y0065144D01*
X0087336Y0068703D01*
X0088335Y0068703D01*
X0088335Y0065144D01*
X0090986Y0065144D01*
X0091185Y0065197D01*
X0091185Y0060188D01*
X0093431Y0057943D01*
X0091185Y0055697D01*
X0091185Y0050188D01*
X0093431Y0047943D01*
X0091185Y0045697D01*
X0091185Y0040188D01*
X0094067Y0037307D01*
X0092085Y0035325D01*
X0092085Y0033443D01*
X0097335Y0033443D01*
X0097335Y0032443D01*
X0092085Y0032443D01*
X0092085Y0030561D01*
X0095454Y0027193D01*
X0097335Y0027193D01*
X0097335Y0032443D01*
X0098335Y0032443D01*
X0098335Y0027193D01*
X0100217Y0027193D01*
X0102935Y0029911D01*
X0102935Y0022198D01*
X0102669Y0022843D01*
X0100235Y0025276D01*
X0097056Y0026593D01*
X0093615Y0026593D01*
X0090436Y0025276D01*
X0088002Y0022843D01*
X0086685Y0019664D01*
X0086685Y0018497D01*
X0083090Y0022093D01*
X0077581Y0022093D01*
X0075335Y0019847D01*
X0073090Y0022093D01*
X0067581Y0022093D01*
X0065335Y0019847D01*
X0063090Y0022093D01*
X0057581Y0022093D01*
X0055335Y0019847D01*
X0053167Y0022016D01*
X0062605Y0031453D01*
X0062970Y0032335D01*
X0062970Y0033290D01*
X0062605Y0034172D01*
X0061377Y0035400D01*
X0061824Y0035400D01*
X0061824Y0039943D01*
X0057674Y0039943D01*
X0057674Y0039103D01*
X0056362Y0040415D01*
X0055480Y0040780D01*
X0054525Y0040780D01*
X0053643Y0040415D01*
X0043781Y0030553D01*
X0043416Y0029671D01*
X0043416Y0028716D01*
X0043781Y0027834D01*
X0045838Y0025777D01*
X0045352Y0025777D01*
X0044478Y0026651D01*
X0043412Y0027093D01*
X0042701Y0027093D01*
X0043169Y0028222D01*
X0043169Y0029882D01*
X0042534Y0031415D01*
X0041360Y0032589D01*
X0039827Y0033224D01*
X0038167Y0033224D01*
X0036634Y0032589D01*
X0035461Y0031415D01*
X0034826Y0029882D01*
X0034826Y0028804D01*
X0030735Y0032894D01*
X0030735Y0035492D01*
X0033986Y0038742D01*
X0034019Y0038710D01*
X0034132Y0038663D01*
X0034179Y0038550D01*
X0036246Y0036483D01*
X0036359Y0036436D01*
X0036406Y0036323D01*
X0038473Y0034256D01*
X0039355Y0033890D01*
X0040111Y0033890D01*
X0040303Y0033699D01*
X0040625Y0034021D01*
X0040626Y0034021D01*
X0040303Y0033698D01*
X0041138Y0032863D01*
X0041481Y0032665D01*
X0041862Y0032563D01*
X0042257Y0032563D01*
X0042638Y0032665D01*
X0042981Y0032863D01*
X0047435Y0037318D01*
X0051890Y0041772D01*
X0052087Y0042114D01*
X0052190Y0042496D01*
X0052190Y0042891D01*
X0057674Y0042891D01*
X0057674Y0043889D02*
X0051615Y0043889D01*
X0051890Y0043614D02*
X0051054Y0044450D01*
X0050862Y0044642D01*
X0050862Y0045398D01*
X0050497Y0046280D01*
X0049287Y0047490D01*
X0054990Y0053193D01*
X0055672Y0053874D02*
X0056774Y0053874D01*
X0053347Y0055651D02*
X0053347Y0060443D01*
X0061143Y0060443D01*
X0053347Y0055651D02*
X0041224Y0043528D01*
X0038997Y0045756D02*
X0043685Y0050443D01*
X0049680Y0047883D02*
X0056774Y0047883D01*
X0056774Y0046885D02*
X0049892Y0046885D01*
X0050660Y0045886D02*
X0056833Y0045886D01*
X0057398Y0044888D02*
X0050862Y0044888D01*
X0051054Y0044450D02*
X0050732Y0044127D01*
X0050732Y0044127D01*
X0051054Y0044450D01*
X0051890Y0043614D02*
X0052087Y0043272D01*
X0052190Y0042891D01*
X0051959Y0041892D02*
X0057674Y0041892D01*
X0057674Y0039895D02*
X0056882Y0039895D01*
X0053123Y0039895D02*
X0050013Y0039895D01*
X0049014Y0038897D02*
X0052125Y0038897D01*
X0051126Y0037898D02*
X0048016Y0037898D01*
X0047435Y0037318D02*
X0045844Y0038908D01*
X0045844Y0038908D01*
X0047435Y0037318D01*
X0047017Y0036900D02*
X0050128Y0036900D01*
X0049129Y0035901D02*
X0046019Y0035901D01*
X0045020Y0034903D02*
X0048130Y0034903D01*
X0047132Y0033904D02*
X0044022Y0033904D01*
X0043023Y0032906D02*
X0046133Y0032906D01*
X0045135Y0031907D02*
X0042042Y0031907D01*
X0042744Y0030909D02*
X0044136Y0030909D01*
X0043515Y0029910D02*
X0043157Y0029910D01*
X0043169Y0028912D02*
X0043416Y0028912D01*
X0043748Y0027913D02*
X0043041Y0027913D01*
X0043843Y0026915D02*
X0044700Y0026915D01*
X0045213Y0025916D02*
X0045699Y0025916D01*
X0042835Y0024193D02*
X0045335Y0021693D01*
X0042835Y0024193D02*
X0035335Y0024193D01*
X0034826Y0028912D02*
X0034718Y0028912D01*
X0034837Y0029910D02*
X0033719Y0029910D01*
X0032721Y0030909D02*
X0035251Y0030909D01*
X0035953Y0031907D02*
X0031722Y0031907D01*
X0030735Y0032906D02*
X0037399Y0032906D01*
X0037826Y0034903D02*
X0030735Y0034903D01*
X0030735Y0033904D02*
X0039322Y0033904D01*
X0040508Y0033904D02*
X0040509Y0033904D01*
X0040595Y0032906D02*
X0041096Y0032906D01*
X0036827Y0035901D02*
X0031145Y0035901D01*
X0032144Y0036900D02*
X0035829Y0036900D01*
X0034830Y0037898D02*
X0033142Y0037898D01*
X0045856Y0038897D02*
X0045856Y0038897D01*
X0046854Y0037898D02*
X0046855Y0037898D01*
X0051011Y0040894D02*
X0061824Y0040894D01*
X0061824Y0039895D02*
X0062824Y0039895D01*
X0062824Y0039943D02*
X0062824Y0035400D01*
X0065671Y0035400D01*
X0066052Y0035502D01*
X0066394Y0035699D01*
X0066674Y0035979D01*
X0066871Y0036321D01*
X0066973Y0036702D01*
X0066973Y0039943D01*
X0062824Y0039943D01*
X0062824Y0040894D02*
X0067798Y0040894D01*
X0067798Y0041892D02*
X0066973Y0041892D01*
X0066973Y0042891D02*
X0067798Y0042891D01*
X0067798Y0043889D02*
X0066973Y0043889D01*
X0067249Y0044888D02*
X0067973Y0044888D01*
X0067857Y0045886D02*
X0067814Y0045886D01*
X0073347Y0050443D02*
X0073347Y0040443D01*
X0073347Y0035955D01*
X0068446Y0031053D01*
X0068446Y0029193D01*
X0073448Y0024918D02*
X0077223Y0024918D01*
X0076873Y0025916D02*
X0073798Y0025916D01*
X0073798Y0026915D02*
X0076873Y0026915D01*
X0076873Y0027913D02*
X0073798Y0027913D01*
X0073798Y0028912D02*
X0076873Y0028912D01*
X0076873Y0029910D02*
X0073798Y0029910D01*
X0073798Y0030909D02*
X0076873Y0030909D01*
X0076873Y0031907D02*
X0073798Y0031907D01*
X0074399Y0032906D02*
X0076990Y0032906D01*
X0077637Y0033904D02*
X0075398Y0033904D01*
X0075335Y0037943D02*
X0075335Y0040443D01*
X0074085Y0040443D01*
X0073347Y0040443D02*
X0074824Y0038967D01*
X0074824Y0037943D01*
X0075335Y0037943D01*
X0075335Y0040443D02*
X0077835Y0040443D01*
X0080335Y0037943D01*
X0082225Y0034833D02*
X0082225Y0029193D01*
X0087578Y0028912D02*
X0093735Y0028912D01*
X0092737Y0029910D02*
X0087578Y0029910D01*
X0087578Y0030909D02*
X0092085Y0030909D01*
X0092085Y0031907D02*
X0087578Y0031907D01*
X0087461Y0032906D02*
X0097335Y0032906D01*
X0097335Y0031907D02*
X0098335Y0031907D01*
X0098335Y0030909D02*
X0097335Y0030909D01*
X0097335Y0029910D02*
X0098335Y0029910D01*
X0098335Y0028912D02*
X0097335Y0028912D01*
X0097335Y0027913D02*
X0098335Y0027913D01*
X0098690Y0025916D02*
X0102935Y0025916D01*
X0102935Y0024918D02*
X0100594Y0024918D01*
X0101592Y0023919D02*
X0102935Y0023919D01*
X0102935Y0022921D02*
X0102591Y0022921D01*
X0102935Y0026915D02*
X0087578Y0026915D01*
X0087578Y0027913D02*
X0094734Y0027913D01*
X0091981Y0025916D02*
X0087578Y0025916D01*
X0087228Y0024918D02*
X0090077Y0024918D01*
X0089079Y0023919D02*
X0085846Y0023919D01*
X0088080Y0022921D02*
X0054072Y0022921D01*
X0053261Y0021922D02*
X0057410Y0021922D01*
X0056412Y0020924D02*
X0054259Y0020924D01*
X0055258Y0019925D02*
X0055413Y0019925D01*
X0055071Y0023919D02*
X0064825Y0023919D01*
X0063443Y0024918D02*
X0056069Y0024918D01*
X0057068Y0025916D02*
X0063093Y0025916D01*
X0063093Y0026915D02*
X0058066Y0026915D01*
X0059065Y0027913D02*
X0063093Y0027913D01*
X0063093Y0028912D02*
X0060063Y0028912D01*
X0061062Y0029910D02*
X0063093Y0029910D01*
X0063093Y0030909D02*
X0062060Y0030909D01*
X0062793Y0031907D02*
X0063093Y0031907D01*
X0063210Y0032906D02*
X0062970Y0032906D01*
X0062716Y0033904D02*
X0063857Y0033904D01*
X0061874Y0034903D02*
X0068194Y0034903D01*
X0068013Y0035901D02*
X0066596Y0035901D01*
X0066973Y0036900D02*
X0067798Y0036900D01*
X0067798Y0037898D02*
X0066973Y0037898D01*
X0066973Y0038897D02*
X0067798Y0038897D01*
X0067798Y0039895D02*
X0066973Y0039895D01*
X0062824Y0038897D02*
X0061824Y0038897D01*
X0061824Y0037898D02*
X0062824Y0037898D01*
X0062824Y0036900D02*
X0061824Y0036900D01*
X0061824Y0035901D02*
X0062824Y0035901D01*
X0071585Y0038681D02*
X0073347Y0040443D01*
X0082225Y0034833D02*
X0084085Y0036693D01*
X0084085Y0044931D01*
X0086985Y0038897D02*
X0092477Y0038897D01*
X0091479Y0039895D02*
X0089530Y0039895D01*
X0090253Y0040894D02*
X0091185Y0040894D01*
X0091185Y0041892D02*
X0090422Y0041892D01*
X0090422Y0042891D02*
X0091185Y0042891D01*
X0091185Y0043889D02*
X0090422Y0043889D01*
X0090422Y0044888D02*
X0091185Y0044888D01*
X0091374Y0045886D02*
X0090422Y0045886D01*
X0090422Y0046885D02*
X0092373Y0046885D01*
X0093371Y0047883D02*
X0090422Y0047883D01*
X0090288Y0048882D02*
X0092492Y0048882D01*
X0091494Y0049880D02*
X0089617Y0049880D01*
X0091185Y0050879D02*
X0078897Y0050879D01*
X0078897Y0051877D02*
X0078955Y0051877D01*
X0083586Y0051877D02*
X0084585Y0051877D01*
X0084585Y0052876D02*
X0083586Y0052876D01*
X0083586Y0053874D02*
X0084585Y0053874D01*
X0084585Y0054873D02*
X0083586Y0054873D01*
X0084586Y0055871D02*
X0091360Y0055871D01*
X0091185Y0054873D02*
X0089522Y0054873D01*
X0089522Y0053874D02*
X0091185Y0053874D01*
X0091185Y0052876D02*
X0089522Y0052876D01*
X0089216Y0051877D02*
X0091185Y0051877D01*
X0092358Y0056870D02*
X0089522Y0056870D01*
X0089522Y0057868D02*
X0093357Y0057868D01*
X0092507Y0058867D02*
X0089522Y0058867D01*
X0089315Y0059866D02*
X0091508Y0059866D01*
X0091185Y0060864D02*
X0075028Y0060864D01*
X0074528Y0060443D02*
X0074528Y0070443D01*
X0074028Y0070849D02*
X0070280Y0070849D01*
X0070273Y0071848D02*
X0069282Y0071848D01*
X0070273Y0072846D02*
X0068283Y0072846D01*
X0066298Y0073845D02*
X0070273Y0073845D01*
X0067659Y0074843D02*
X0066141Y0074843D01*
X0066785Y0075842D02*
X0065437Y0075842D01*
X0066371Y0076840D02*
X0044299Y0076840D01*
X0044420Y0077839D02*
X0066251Y0077839D01*
X0066285Y0078837D02*
X0044386Y0078837D01*
X0040335Y0077943D02*
X0040335Y0075443D01*
X0042324Y0073455D01*
X0042324Y0070443D01*
X0047406Y0075842D02*
X0048265Y0075842D01*
X0050922Y0079836D02*
X0055167Y0079836D01*
X0054288Y0080834D02*
X0051598Y0080834D01*
X0051735Y0081833D02*
X0053875Y0081833D01*
X0055335Y0085443D02*
X0038835Y0085443D01*
X0030076Y0076683D01*
X0027835Y0076683D01*
X0025935Y0081833D02*
X0019485Y0081833D01*
X0019485Y0082831D02*
X0025935Y0082831D01*
X0025935Y0083830D02*
X0019485Y0083830D01*
X0019485Y0084828D02*
X0025935Y0084828D01*
X0025935Y0085827D02*
X0019356Y0085827D01*
X0018358Y0086825D02*
X0025935Y0086825D01*
X0025935Y0087824D02*
X0017359Y0087824D01*
X0016361Y0088822D02*
X0025935Y0088822D01*
X0025977Y0089821D02*
X0018331Y0089821D01*
X0020445Y0090819D02*
X0026518Y0090819D01*
X0022988Y0093815D02*
X0037559Y0093815D01*
X0036560Y0094813D02*
X0032838Y0094813D01*
X0033836Y0095812D02*
X0035562Y0095812D01*
X0030835Y0095812D02*
X0029835Y0095812D01*
X0029835Y0096810D02*
X0030835Y0096810D01*
X0030835Y0097809D02*
X0029835Y0097809D01*
X0029835Y0098807D02*
X0030835Y0098807D01*
X0030835Y0099806D02*
X0029835Y0099806D01*
X0029835Y0100804D02*
X0023513Y0100804D01*
X0023926Y0099806D02*
X0024585Y0099806D01*
X0024585Y0098807D02*
X0023985Y0098807D01*
X0023985Y0097809D02*
X0024838Y0097809D01*
X0023985Y0096810D02*
X0025836Y0096810D01*
X0026835Y0095812D02*
X0023815Y0095812D01*
X0023402Y0094813D02*
X0027833Y0094813D01*
X0029835Y0094813D02*
X0030835Y0094813D01*
X0024585Y0101803D02*
X0023099Y0101803D01*
X0022686Y0102802D02*
X0024585Y0102802D01*
X0025561Y0103800D02*
X0021711Y0103800D01*
X0020713Y0104799D02*
X0026559Y0104799D01*
X0022442Y0092816D02*
X0102935Y0092816D01*
X0102935Y0091818D02*
X0021443Y0091818D01*
X0023081Y0080834D02*
X0019485Y0080834D01*
X0019133Y0079836D02*
X0022531Y0079836D01*
X0022483Y0078837D02*
X0018134Y0078837D01*
X0017344Y0077839D02*
X0022483Y0077839D01*
X0022483Y0076840D02*
X0018343Y0076840D01*
X0019341Y0075842D02*
X0022483Y0075842D01*
X0022483Y0074843D02*
X0019485Y0074843D01*
X0019485Y0073845D02*
X0022483Y0073845D01*
X0022814Y0072846D02*
X0019485Y0072846D01*
X0019485Y0071848D02*
X0023383Y0071848D01*
X0023383Y0070849D02*
X0019485Y0070849D01*
X0019148Y0069851D02*
X0023383Y0069851D01*
X0023383Y0067854D02*
X0017329Y0067854D01*
X0018149Y0068852D02*
X0027335Y0068852D01*
X0028336Y0068852D02*
X0033685Y0068852D01*
X0033685Y0067854D02*
X0032288Y0067854D01*
X0032288Y0068703D02*
X0028336Y0068703D01*
X0028336Y0069703D01*
X0032288Y0069703D01*
X0032288Y0071959D01*
X0032231Y0072173D01*
X0032501Y0072443D01*
X0032501Y0072131D01*
X0033123Y0070629D01*
X0033685Y0070067D01*
X0033685Y0063091D01*
X0031868Y0064909D01*
X0031177Y0065195D01*
X0031367Y0065246D01*
X0031709Y0065443D01*
X0031989Y0065723D01*
X0032186Y0066065D01*
X0032288Y0066446D01*
X0032288Y0068703D01*
X0032288Y0069851D02*
X0033685Y0069851D01*
X0033032Y0070849D02*
X0032288Y0070849D01*
X0032288Y0071848D02*
X0032618Y0071848D01*
X0036585Y0072943D02*
X0036585Y0061693D01*
X0037835Y0060443D01*
X0042324Y0060443D01*
X0033685Y0063860D02*
X0032917Y0063860D01*
X0033685Y0064858D02*
X0031919Y0064858D01*
X0032066Y0065857D02*
X0033685Y0065857D01*
X0033685Y0066855D02*
X0032288Y0066855D01*
X0026585Y0062943D02*
X0019085Y0055443D01*
X0019085Y0046693D01*
X0017410Y0057868D02*
X0017314Y0057868D01*
X0018164Y0058867D02*
X0018408Y0058867D01*
X0019163Y0059866D02*
X0019407Y0059866D01*
X0019485Y0060864D02*
X0020405Y0060864D01*
X0020203Y0061863D02*
X0019485Y0061863D01*
X0019485Y0062861D02*
X0020085Y0062861D01*
X0020136Y0063860D02*
X0019485Y0063860D01*
X0019485Y0064858D02*
X0020549Y0064858D01*
X0021342Y0065857D02*
X0019326Y0065857D01*
X0018328Y0066855D02*
X0023078Y0066855D01*
X0043112Y0093815D02*
X0047559Y0093815D01*
X0046560Y0094813D02*
X0044110Y0094813D01*
X0045109Y0095812D02*
X0045562Y0095812D01*
X0051153Y0090819D02*
X0064518Y0090819D01*
X0063977Y0089821D02*
X0051694Y0089821D01*
X0051735Y0088822D02*
X0063935Y0088822D01*
X0063935Y0087824D02*
X0057056Y0087824D01*
X0059135Y0086825D02*
X0063935Y0086825D01*
X0063935Y0085827D02*
X0060728Y0085827D01*
X0061475Y0084828D02*
X0063935Y0084828D01*
X0063935Y0083830D02*
X0061889Y0083830D01*
X0061920Y0082831D02*
X0063935Y0082831D01*
X0063935Y0081833D02*
X0061796Y0081833D01*
X0061383Y0080834D02*
X0064073Y0080834D01*
X0064749Y0079836D02*
X0060504Y0079836D01*
X0057835Y0082943D02*
X0055335Y0085443D01*
X0053112Y0093815D02*
X0057559Y0093815D01*
X0056560Y0094813D02*
X0054110Y0094813D01*
X0055109Y0095812D02*
X0055562Y0095812D01*
X0063112Y0093815D02*
X0067559Y0093815D01*
X0066560Y0094813D02*
X0064110Y0094813D01*
X0065109Y0095812D02*
X0065562Y0095812D01*
X0073112Y0093815D02*
X0077559Y0093815D01*
X0076560Y0094813D02*
X0074110Y0094813D01*
X0075109Y0095812D02*
X0075562Y0095812D01*
X0083112Y0093815D02*
X0102935Y0093815D01*
X0102935Y0094813D02*
X0084110Y0094813D01*
X0085109Y0095812D02*
X0102935Y0095812D01*
X0102935Y0096810D02*
X0086108Y0096810D01*
X0086985Y0097809D02*
X0102935Y0097809D01*
X0102935Y0098807D02*
X0086985Y0098807D01*
X0086985Y0099806D02*
X0102935Y0099806D01*
X0102935Y0100804D02*
X0086985Y0100804D01*
X0086985Y0101803D02*
X0102935Y0101803D01*
X0102935Y0102802D02*
X0086985Y0102802D01*
X0086383Y0103800D02*
X0102935Y0103800D01*
X0102935Y0104799D02*
X0085384Y0104799D01*
X0089153Y0090819D02*
X0102935Y0090819D01*
X0102935Y0089821D02*
X0089694Y0089821D01*
X0089735Y0088822D02*
X0094310Y0088822D01*
X0093312Y0087824D02*
X0089735Y0087824D01*
X0089735Y0086825D02*
X0092313Y0086825D01*
X0091315Y0085827D02*
X0089735Y0085827D01*
X0090051Y0084828D02*
X0091185Y0084828D01*
X0091185Y0083830D02*
X0090607Y0083830D01*
X0090735Y0082831D02*
X0091185Y0082831D01*
X0091185Y0081833D02*
X0090735Y0081833D01*
X0087835Y0082943D02*
X0085335Y0085443D01*
X0076835Y0085443D01*
X0075335Y0083943D01*
X0072835Y0083943D01*
X0072835Y0080443D01*
X0070335Y0077943D01*
X0074420Y0077839D02*
X0082483Y0077839D01*
X0082483Y0078837D02*
X0075309Y0078837D01*
X0074299Y0076840D02*
X0082483Y0076840D01*
X0082483Y0075842D02*
X0073886Y0075842D01*
X0074028Y0074843D02*
X0075028Y0074843D01*
X0075028Y0075486D02*
X0075028Y0070943D01*
X0078784Y0070943D01*
X0078784Y0074184D01*
X0078682Y0074565D01*
X0078485Y0074907D01*
X0078205Y0075187D01*
X0077863Y0075384D01*
X0077482Y0075486D01*
X0075028Y0075486D01*
X0075028Y0073845D02*
X0074028Y0073845D01*
X0074028Y0072846D02*
X0075028Y0072846D01*
X0075028Y0071848D02*
X0074028Y0071848D01*
X0075028Y0070849D02*
X0083383Y0070849D01*
X0083383Y0069851D02*
X0078784Y0069851D01*
X0078784Y0068852D02*
X0087335Y0068852D01*
X0087336Y0067854D02*
X0088335Y0067854D01*
X0088336Y0068703D02*
X0088336Y0069703D01*
X0091671Y0069703D01*
X0093431Y0067943D01*
X0092288Y0066800D01*
X0092288Y0068703D01*
X0088336Y0068703D01*
X0088336Y0068852D02*
X0092522Y0068852D01*
X0092288Y0067854D02*
X0093342Y0067854D01*
X0092343Y0066855D02*
X0092288Y0066855D01*
X0091185Y0064858D02*
X0078513Y0064858D01*
X0078363Y0065857D02*
X0083605Y0065857D01*
X0083383Y0066855D02*
X0078784Y0066855D01*
X0078784Y0067854D02*
X0083383Y0067854D01*
X0083383Y0071848D02*
X0078784Y0071848D01*
X0078784Y0072846D02*
X0082814Y0072846D01*
X0082483Y0073845D02*
X0078784Y0073845D01*
X0078522Y0074843D02*
X0082483Y0074843D01*
X0087835Y0076683D02*
X0087835Y0082943D01*
X0101361Y0088822D02*
X0102935Y0088822D01*
X0102935Y0087824D02*
X0102359Y0087824D01*
X0088335Y0066855D02*
X0087336Y0066855D01*
X0087336Y0065857D02*
X0088335Y0065857D01*
X0091185Y0063860D02*
X0078784Y0063860D01*
X0078784Y0062861D02*
X0091185Y0062861D01*
X0091185Y0061863D02*
X0078784Y0061863D01*
X0078784Y0059866D02*
X0078856Y0059866D01*
X0075028Y0061863D02*
X0074028Y0061863D01*
X0074028Y0062861D02*
X0075028Y0062861D01*
X0075028Y0063860D02*
X0074028Y0063860D01*
X0074028Y0064858D02*
X0075028Y0064858D01*
X0075028Y0065857D02*
X0074028Y0065857D01*
X0074028Y0066855D02*
X0075028Y0066855D01*
X0075028Y0067854D02*
X0074028Y0067854D01*
X0074028Y0068852D02*
X0075028Y0068852D01*
X0075028Y0069851D02*
X0074028Y0069851D01*
X0083586Y0059866D02*
X0084585Y0059866D01*
X0084585Y0058867D02*
X0083586Y0058867D01*
X0083586Y0057868D02*
X0084585Y0057868D01*
X0084585Y0056870D02*
X0083586Y0056870D01*
X0086985Y0037898D02*
X0093476Y0037898D01*
X0093661Y0036900D02*
X0086985Y0036900D01*
X0086896Y0035901D02*
X0092662Y0035901D01*
X0092085Y0034903D02*
X0086397Y0034903D01*
X0086814Y0033904D02*
X0092085Y0033904D01*
X0100937Y0027913D02*
X0102935Y0027913D01*
X0102935Y0028912D02*
X0101936Y0028912D01*
X0102934Y0029910D02*
X0102935Y0029910D01*
X0087621Y0021922D02*
X0083261Y0021922D01*
X0084259Y0020924D02*
X0087207Y0020924D01*
X0086794Y0019925D02*
X0085258Y0019925D01*
X0086256Y0018927D02*
X0086685Y0018927D01*
X0078605Y0023919D02*
X0072066Y0023919D01*
X0073261Y0021922D02*
X0077410Y0021922D01*
X0076412Y0020924D02*
X0074259Y0020924D01*
X0075258Y0019925D02*
X0075413Y0019925D01*
X0067410Y0021922D02*
X0063261Y0021922D01*
X0064259Y0020924D02*
X0066412Y0020924D01*
X0065413Y0019925D02*
X0065258Y0019925D01*
X0056774Y0048882D02*
X0050679Y0048882D01*
X0051677Y0049880D02*
X0056774Y0049880D01*
D22*
X0044085Y0054193D03*
X0026585Y0062943D03*
X0036585Y0072943D03*
X0040335Y0077943D03*
X0057835Y0082943D03*
X0057835Y0087943D03*
X0070335Y0077943D03*
X0080335Y0037943D03*
X0060335Y0025443D03*
X0045335Y0021693D03*
X0032835Y0035443D03*
X0019085Y0046693D03*
D23*
X0095335Y0097943D03*
D24*
X0024085Y0066693D02*
X0023965Y0066691D01*
X0023845Y0066685D01*
X0023725Y0066676D01*
X0023605Y0066662D01*
X0023487Y0066645D01*
X0023368Y0066624D01*
X0023251Y0066599D01*
X0023134Y0066570D01*
X0023018Y0066538D01*
X0022903Y0066502D01*
X0022790Y0066462D01*
X0022678Y0066419D01*
X0022567Y0066372D01*
X0022458Y0066322D01*
X0022350Y0066268D01*
X0022245Y0066210D01*
X0022141Y0066150D01*
X0022039Y0066086D01*
X0021940Y0066019D01*
X0021842Y0065948D01*
X0021747Y0065875D01*
X0021654Y0065798D01*
X0021564Y0065719D01*
X0021476Y0065637D01*
X0021391Y0065552D01*
X0021309Y0065464D01*
X0021230Y0065374D01*
X0021153Y0065281D01*
X0021080Y0065186D01*
X0021009Y0065088D01*
X0020942Y0064989D01*
X0020878Y0064887D01*
X0020818Y0064783D01*
X0020760Y0064678D01*
X0020706Y0064570D01*
X0020656Y0064461D01*
X0020609Y0064350D01*
X0020566Y0064238D01*
X0020526Y0064125D01*
X0020490Y0064010D01*
X0020458Y0063894D01*
X0020429Y0063777D01*
X0020404Y0063660D01*
X0020383Y0063541D01*
X0020366Y0063423D01*
X0020352Y0063303D01*
X0020343Y0063183D01*
X0020337Y0063063D01*
X0020335Y0062943D01*
D25*
X0020335Y0066693D02*
X0020335Y0067943D01*
X0020335Y0066693D02*
X0024085Y0066693D01*
D26*
X0024085Y0062943D02*
X0026585Y0062943D01*
M02*
