G75*
%MOIN*%
%OFA0B0*%
%FSLAX25Y25*%
%IPPOS*%
%LPD*%
%AMOC8*
5,1,8,0,0,1.08239X$1,22.5*
%
%ADD10C,0.13100*%
%ADD11C,0.04143*%
%ADD12OC8,0.09100*%
%ADD13R,0.02800X0.05600*%
%ADD14R,0.05600X0.02800*%
%ADD15R,0.06899X0.08474*%
%ADD16R,0.06899X0.07687*%
%ADD17C,0.03969*%
%ADD18C,0.17100*%
D10*
X0095335Y0017943D03*
X0015335Y0097943D03*
D11*
X0026748Y0041301D03*
X0038997Y0029052D03*
D12*
X0050335Y0015443D03*
X0060335Y0015443D03*
X0070335Y0015443D03*
X0080335Y0015443D03*
X0097835Y0032943D03*
X0097835Y0042943D03*
X0097835Y0052943D03*
X0097835Y0062943D03*
X0097835Y0072943D03*
X0097835Y0082943D03*
X0080335Y0100443D03*
X0070335Y0100443D03*
X0060335Y0100443D03*
X0050335Y0100443D03*
X0040335Y0100443D03*
X0030335Y0100443D03*
X0012835Y0082943D03*
X0012835Y0072943D03*
X0012835Y0062943D03*
X0012835Y0052943D03*
D13*
X0044312Y0041043D03*
X0047461Y0041043D03*
X0050611Y0041043D03*
X0053761Y0041043D03*
X0056910Y0041043D03*
X0060060Y0041043D03*
X0063210Y0041043D03*
X0066359Y0041043D03*
X0066359Y0074843D03*
X0063210Y0074843D03*
X0060060Y0074843D03*
X0056910Y0074843D03*
X0053761Y0074843D03*
X0050611Y0074843D03*
X0047461Y0074843D03*
X0044312Y0074843D03*
D14*
X0038435Y0068967D03*
X0038435Y0065817D03*
X0038435Y0062667D03*
X0038435Y0059518D03*
X0038435Y0056368D03*
X0038435Y0053219D03*
X0038435Y0050069D03*
X0038435Y0046919D03*
X0072235Y0046919D03*
X0072235Y0050069D03*
X0072235Y0053219D03*
X0072235Y0056368D03*
X0072235Y0059518D03*
X0072235Y0062667D03*
X0072235Y0065817D03*
X0072235Y0068967D03*
D15*
G36*
X0024790Y0024479D02*
X0029667Y0019602D01*
X0023676Y0013611D01*
X0018799Y0018488D01*
X0024790Y0024479D01*
G37*
G36*
X0016995Y0032274D02*
X0021872Y0027397D01*
X0015881Y0021406D01*
X0011004Y0026283D01*
X0016995Y0032274D01*
G37*
D16*
G36*
X0023660Y0029184D02*
X0018782Y0034062D01*
X0024216Y0039496D01*
X0029094Y0034618D01*
X0023660Y0029184D01*
G37*
G36*
X0031455Y0021389D02*
X0026577Y0026267D01*
X0032011Y0031701D01*
X0036889Y0026823D01*
X0031455Y0021389D01*
G37*
D17*
X0045335Y0021693D03*
X0032835Y0035443D03*
X0019085Y0046693D03*
X0026585Y0062943D03*
X0036585Y0072943D03*
X0040335Y0077943D03*
X0057835Y0082943D03*
X0057835Y0087943D03*
X0070335Y0077943D03*
X0044085Y0054193D03*
X0060335Y0025443D03*
X0080335Y0037943D03*
D18*
X0095335Y0097943D03*
M02*
