%
M48
M72
T01C0.01969
T02C0.03543
T03C0.05200
T04C0.12500
%
T01
X32835Y35443
X45335Y21693
X60335Y25443
X80335Y37943
X44085Y54193
X26585Y62943
X36585Y72943
X40335Y77943
X57835Y82943
X57835Y87943
X70335Y77943
X19085Y46693
T02
X26748Y41301
X38997Y29052
T03
X50335Y15443
X60335Y15443
X70335Y15443
X80335Y15443
X97835Y32943
X97835Y42943
X97835Y52943
X97835Y62943
X97835Y72943
X97835Y82943
X80335Y100443
X70335Y100443
X60335Y100443
X50335Y100443
X40335Y100443
X30335Y100443
X12835Y82943
X12835Y72943
X12835Y62943
X12835Y52943
T04
X15335Y97943
X95335Y97943
X95335Y17943
M30
