G75*
%MOIN*%
%OFA0B0*%
%FSLAX25Y25*%
%IPPOS*%
%LPD*%
%AMOC8*
5,1,8,0,0,1.08239X$1,22.5*
%
%ADD10C,0.13100*%
%ADD11C,0.04000*%
%ADD12R,0.09643X0.08474*%
%ADD13R,0.13592X0.08474*%
%ADD14R,0.12805X0.02569*%
%ADD15C,0.04143*%
%ADD16OC8,0.09100*%
%ADD17R,0.21600X0.08200*%
%ADD18R,0.06506X0.05718*%
%ADD19R,0.06899X0.07687*%
%ADD20R,0.06899X0.08474*%
%ADD21R,0.06112X0.07687*%
%ADD22R,0.06506X0.06506*%
%ADD23R,0.08474X0.06899*%
%ADD24C,0.03969*%
%ADD25C,0.17100*%
D10*
X0095335Y0017943D03*
X0015335Y0097943D03*
D11*
X0021585Y0062943D02*
X0021587Y0063013D01*
X0021593Y0063083D01*
X0021603Y0063152D01*
X0021616Y0063221D01*
X0021634Y0063289D01*
X0021655Y0063356D01*
X0021680Y0063421D01*
X0021709Y0063485D01*
X0021741Y0063548D01*
X0021777Y0063608D01*
X0021816Y0063666D01*
X0021858Y0063722D01*
X0021903Y0063776D01*
X0021951Y0063827D01*
X0022002Y0063875D01*
X0022056Y0063920D01*
X0022112Y0063962D01*
X0022170Y0064001D01*
X0022230Y0064037D01*
X0022293Y0064069D01*
X0022357Y0064098D01*
X0022422Y0064123D01*
X0022489Y0064144D01*
X0022557Y0064162D01*
X0022626Y0064175D01*
X0022695Y0064185D01*
X0022765Y0064191D01*
X0022835Y0064193D01*
X0022905Y0064191D01*
X0022975Y0064185D01*
X0023044Y0064175D01*
X0023113Y0064162D01*
X0023181Y0064144D01*
X0023248Y0064123D01*
X0023313Y0064098D01*
X0023377Y0064069D01*
X0023440Y0064037D01*
X0023500Y0064001D01*
X0023558Y0063962D01*
X0023614Y0063920D01*
X0023668Y0063875D01*
X0023719Y0063827D01*
X0023767Y0063776D01*
X0023812Y0063722D01*
X0023854Y0063666D01*
X0023893Y0063608D01*
X0023929Y0063548D01*
X0023961Y0063485D01*
X0023990Y0063421D01*
X0024015Y0063356D01*
X0024036Y0063289D01*
X0024054Y0063221D01*
X0024067Y0063152D01*
X0024077Y0063083D01*
X0024083Y0063013D01*
X0024085Y0062943D01*
X0024083Y0062873D01*
X0024077Y0062803D01*
X0024067Y0062734D01*
X0024054Y0062665D01*
X0024036Y0062597D01*
X0024015Y0062530D01*
X0023990Y0062465D01*
X0023961Y0062401D01*
X0023929Y0062338D01*
X0023893Y0062278D01*
X0023854Y0062220D01*
X0023812Y0062164D01*
X0023767Y0062110D01*
X0023719Y0062059D01*
X0023668Y0062011D01*
X0023614Y0061966D01*
X0023558Y0061924D01*
X0023500Y0061885D01*
X0023440Y0061849D01*
X0023377Y0061817D01*
X0023313Y0061788D01*
X0023248Y0061763D01*
X0023181Y0061742D01*
X0023113Y0061724D01*
X0023044Y0061711D01*
X0022975Y0061701D01*
X0022905Y0061695D01*
X0022835Y0061693D01*
X0022765Y0061695D01*
X0022695Y0061701D01*
X0022626Y0061711D01*
X0022557Y0061724D01*
X0022489Y0061742D01*
X0022422Y0061763D01*
X0022357Y0061788D01*
X0022293Y0061817D01*
X0022230Y0061849D01*
X0022170Y0061885D01*
X0022112Y0061924D01*
X0022056Y0061966D01*
X0022002Y0062011D01*
X0021951Y0062059D01*
X0021903Y0062110D01*
X0021858Y0062164D01*
X0021816Y0062220D01*
X0021777Y0062278D01*
X0021741Y0062338D01*
X0021709Y0062401D01*
X0021680Y0062465D01*
X0021655Y0062530D01*
X0021634Y0062597D01*
X0021616Y0062665D01*
X0021603Y0062734D01*
X0021593Y0062803D01*
X0021587Y0062873D01*
X0021585Y0062943D01*
D12*
G36*
X0019605Y0040411D02*
X0012789Y0033595D01*
X0006797Y0039587D01*
X0013613Y0046403D01*
X0019605Y0040411D01*
G37*
G36*
X0044099Y0015917D02*
X0037283Y0009101D01*
X0031291Y0015093D01*
X0038107Y0021909D01*
X0044099Y0015917D01*
G37*
D13*
G36*
X0060994Y0032812D02*
X0051384Y0023202D01*
X0045392Y0029194D01*
X0055002Y0038804D01*
X0060994Y0032812D01*
G37*
G36*
X0036500Y0057306D02*
X0026890Y0047696D01*
X0020898Y0053688D01*
X0030508Y0063298D01*
X0036500Y0057306D01*
G37*
D14*
G36*
X0042204Y0051601D02*
X0033152Y0042549D01*
X0031336Y0044365D01*
X0040388Y0053417D01*
X0042204Y0051601D01*
G37*
G36*
X0044431Y0049374D02*
X0035379Y0040322D01*
X0033563Y0042138D01*
X0042615Y0051190D01*
X0044431Y0049374D01*
G37*
G36*
X0046658Y0047146D02*
X0037606Y0038094D01*
X0035790Y0039910D01*
X0044842Y0048962D01*
X0046658Y0047146D01*
G37*
G36*
X0048885Y0044919D02*
X0039833Y0035867D01*
X0038017Y0037683D01*
X0047069Y0046735D01*
X0048885Y0044919D01*
G37*
G36*
X0051113Y0042692D02*
X0042061Y0033640D01*
X0040245Y0035456D01*
X0049297Y0044508D01*
X0051113Y0042692D01*
G37*
D15*
X0038997Y0029052D03*
X0026748Y0041301D03*
D16*
X0012835Y0052943D03*
X0012835Y0062943D03*
X0012835Y0072943D03*
X0012835Y0082943D03*
X0030335Y0100443D03*
X0040335Y0100443D03*
X0050335Y0100443D03*
X0060335Y0100443D03*
X0070335Y0100443D03*
X0080335Y0100443D03*
X0097835Y0082943D03*
X0097835Y0072943D03*
X0097835Y0062943D03*
X0097835Y0052943D03*
X0097835Y0042943D03*
X0097835Y0032943D03*
X0080335Y0015443D03*
X0070335Y0015443D03*
X0060335Y0015443D03*
X0050335Y0015443D03*
D17*
X0038835Y0085443D03*
X0076835Y0085443D03*
D18*
X0087835Y0076683D03*
X0087835Y0069203D03*
X0027835Y0069203D03*
X0027835Y0076683D03*
D19*
X0062324Y0040443D03*
X0073347Y0040443D03*
D20*
X0073347Y0050443D03*
X0062324Y0050443D03*
X0053347Y0060443D03*
X0053347Y0070443D03*
X0042324Y0070443D03*
X0042324Y0060443D03*
D21*
X0061143Y0060443D03*
X0061143Y0070443D03*
X0074528Y0070443D03*
X0074528Y0060443D03*
D22*
X0068446Y0029193D03*
X0082225Y0029193D03*
D23*
X0084085Y0044931D03*
X0084085Y0055955D03*
D24*
X0032835Y0035443D03*
X0045335Y0021693D03*
X0060335Y0025443D03*
X0080335Y0037943D03*
X0044085Y0054193D03*
X0026585Y0062943D03*
X0036585Y0072943D03*
X0040335Y0077943D03*
X0057835Y0082943D03*
X0057835Y0087943D03*
X0070335Y0077943D03*
X0019085Y0046693D03*
D25*
X0095335Y0097943D03*
M02*
